<svg width="1024" height="768" viewBox="0 0 1024 768" fill="none" xmlns="http://www.w3.org/2000/svg">
<path d="M-166 929.041H1328V-134H-166V929.041Z" fill="#DCE6FE"/>
<path d="M1318.61 929.041H-156.612C-161.797 929.041 -166 924.558 -166 919.021V-123.98C-166 -129.514 -161.797 -134 -156.612 -134H1318.61C1323.8 -134 1328 -129.514 1328 -123.98V919.021C1328 924.558 1323.8 929.041 1318.61 929.041Z" fill="white"/>
<path d="M350.815 583.104C349.104 583.219 321.282 580.016 320.152 571.603C320.908 567.813 322.873 566.118 327.327 565.295C333.458 564.165 339.707 565.727 345.753 564.213C341.244 562.544 324.626 556.019 320.541 545.499C319.847 543.71 318.664 540.58 320.502 537.615C322.339 534.653 326.467 532.436 330.182 532.57C335.446 532.761 336.333 537.526 347.535 548.891C351.863 553.282 356.355 557.203 356.329 557.18C354.68 555.58 353.796 554.296 352.667 552.424C351.467 550.432 349.781 548.576 349.385 546.266C348.732 542.46 353.098 539.308 357.276 540.832C362.398 542.703 365.17 547.537 367.769 551.429C370.967 556.218 373.807 561.242 376.699 566.183C375.794 564.219 374.674 562.273 373.819 560.31C373.025 558.483 372.761 556.508 371.89 554.687C370.896 552.608 370.62 547.962 374.869 547.831C378.978 547.703 382.482 552.863 383.751 554.771C388.936 562.559 397.362 575.506 399.041 574.997C400.777 574.471 395.108 559.561 398.271 558.231C400.462 557.309 407.182 562.78 409.163 569.917C411.053 576.729 406.856 578.321 408.187 583.81C408.795 586.319 416.828 593.512 422.819 598.761C422.335 600.188 421.888 601.622 421.461 603.058C419.427 601.418 417.348 599.851 414.961 598.371C412.103 596.598 409.473 595.074 405.617 595.547C401.678 596.03 398.629 598.213 395.239 599.867C391.416 601.729 386.736 603.871 382.31 603.791C379.662 603.744 375.663 602.885 375.515 600.256C375.279 596.073 380.212 594.797 383.285 592.309C378.652 593.155 360.732 596.734 356.703 595.43C353.916 594.526 351.36 592.742 352.231 589.88C352.672 588.429 353.92 587.103 355.243 586.108C355.816 585.676 360.642 582.915 360.976 583.199C360.173 582.515 352.591 582.983 350.815 583.104Z" fill="#278A2A"/>
<path d="M403.229 585.536C403.579 579.121 403.346 572.452 402.547 565.919C402.454 565.162 402.402 564.08 401.506 563.525C401.164 571.271 401.716 579.01 401.09 586.782C395.311 583.985 390.524 580.024 384.983 577.033C383.773 576.38 383.757 575.318 383.618 574.418C382.849 569.481 383.107 564.872 381.658 560.146C380.474 565.238 380.544 570.257 381.096 575.303C374.946 572.629 369.542 569.333 364.327 565.703C363.084 564.838 362.903 563.659 362.474 562.746C360.614 558.802 359.225 555.206 356.982 551.544C357.509 555.736 358.978 559.561 360.672 563.443C351.375 558.283 342.733 554.042 332.056 551.046C331.977 551.265 331.898 551.487 331.819 551.708C339.837 554.821 347.285 557.176 354.395 561.71C350.41 561.109 346.418 560.354 342.283 560.832C352.563 561.72 361.615 564.542 368.374 570.944C363.132 570.614 357.987 571.004 352.74 571.485C355.548 572.649 358.954 572.569 361.888 572.469C370.192 572.186 377.418 575.099 384.102 578.52C385.238 579.102 386.436 579.975 387.57 580.616C381.151 581.457 374.741 581.906 368.422 583.396C371.447 584.036 374.42 583.823 377.552 583.605C378.112 583.568 378.678 583.605 379.205 583.486C388.707 581.346 394.694 584.543 401.457 589.476C394.258 592.433 386.749 594.771 379.582 597.726C380.92 597.922 382.63 597.631 383.814 597.302C390.34 595.494 396.254 593.318 402.5 591.016C404.241 590.373 411.23 593.456 413.421 594.247C414.471 594.626 416.013 595.781 416.774 594.813C417.815 593.488 415.55 593.228 414.722 592.433C414.15 591.88 403.088 588.1 403.229 585.536Z" fill="#09660E"/>
<path d="M369.487 621.719C368.889 622.554 355.86 634.48 349.925 632.287C347.747 630.708 347.412 629.247 348.626 626.906C350.299 623.684 353.774 621.278 355.162 617.971C352.3 619.532 341.509 625.165 333.032 623.668C331.593 623.413 329.083 622.954 327.868 621.137C326.656 619.325 326.832 616.684 328.38 614.999C330.574 612.608 334.035 613.734 345.859 612.188C350.425 611.591 354.755 610.767 354.727 610.769C353.036 611.023 351.849 611.019 350.182 610.939C348.41 610.854 346.537 611.041 344.872 610.478C342.129 609.553 341.788 606.501 344.425 605.046C347.66 603.263 351.906 603.535 355.47 603.583C359.855 603.641 364.251 603.942 368.613 604.19C366.976 603.978 365.264 603.87 363.647 603.634C362.143 603.414 360.748 602.897 359.217 602.715C357.468 602.508 354.327 601.133 355.912 599.112C357.444 597.155 362.191 597.191 363.933 597.217C371.057 597.319 382.825 597.579 383.152 596.633C383.492 595.653 371.528 593.474 371.902 591.57C372.16 590.252 378.374 588.891 383.814 590.275C389.004 591.596 388.394 594.064 392.501 595.219C394.378 595.747 402.233 594.33 408.016 593.236C408.755 593.923 409.517 594.595 410.287 595.257C408.415 595.674 406.576 596.136 404.67 596.769C402.39 597.528 400.363 598.261 399.154 600.209C397.922 602.201 398.148 604.326 397.894 606.443C397.608 608.825 397.169 611.696 395.376 613.733C394.302 614.951 392.17 616.536 390.397 615.757C387.571 614.514 388.678 611.803 388.263 609.568C386.992 611.999 382.283 621.506 379.85 622.959C378.164 623.966 375.994 624.582 374.468 623.25C373.693 622.576 373.319 621.565 373.188 620.626C373.132 620.22 373.226 617.079 373.544 617.016C372.783 617.169 370.106 620.853 369.487 621.719Z" fill="#5AAC50"/>
<g opacity="0.149994">
<g opacity="0.149994">
<path opacity="0.149994" d="M391.679 598.087C387.627 595.851 383.181 593.801 378.602 592.064C378.071 591.863 377.343 591.537 376.63 591.775C381.552 594.437 386.823 596.683 391.651 599.485C387.552 601.273 383.087 602.224 378.955 603.84C378.053 604.191 377.352 603.856 376.711 603.631C373.186 602.391 370.276 600.781 366.621 599.929C369.48 602.127 372.786 603.718 376.297 605.091C372.133 607.091 367.856 608.543 363.437 609.8C362.382 610.099 361.543 609.802 360.777 609.706C357.471 609.3 354.577 608.783 351.304 608.645C354.25 609.754 357.325 610.307 360.524 610.771C353.502 613.434 347.335 616.091 341.18 620.096C341.293 620.205 341.407 620.312 341.521 620.421C346.706 617.69 351.17 614.984 356.925 613.136C354.965 614.798 352.904 616.413 351.589 618.495C356.211 613.994 361.613 610.688 368.449 609.608C366.174 611.945 364.406 614.467 362.658 617.066C364.521 616.134 365.807 614.523 366.896 613.124C369.975 609.164 374.718 606.738 379.579 604.73C380.405 604.388 381.447 604.113 382.311 603.793C380.336 607.054 378.11 610.184 376.599 613.611C378.207 612.408 379.236 610.953 380.325 609.426C380.52 609.152 380.766 608.9 380.897 608.616C383.235 603.498 387.675 601.741 393.556 600.186C392.656 604.495 391.231 608.75 390.343 613.043C390.996 612.485 391.479 611.593 391.729 610.936C393.113 607.311 394.018 603.852 394.971 600.198C395.235 599.179 399.995 596.918 401.373 596.154C402.033 595.786 403.394 595.443 403.062 594.776C402.603 593.862 401.543 594.834 400.7 594.961C400.116 595.05 393.297 598.98 391.679 598.087Z" fill="#332E66"/>
</g>
</g>
<path d="M379.483 483.665C377.683 482.95 350.97 466.152 354.023 457.045C356.686 453.552 359.532 452.783 364.473 454.115C371.278 455.947 376.858 460.577 383.766 461.977C380.01 458.086 366.359 443.361 367.455 430.665C367.641 428.509 368.002 424.747 371.354 422.623C374.702 420.503 380.01 420.256 383.721 422.201C388.984 424.957 387.506 430.238 393.232 447.254C395.444 453.826 398.055 460.005 398.041 459.964C397.161 457.538 396.902 455.799 396.69 453.344C396.463 450.735 395.675 448.026 396.425 445.481C397.66 441.291 403.678 440.207 407.168 443.792C411.446 448.186 411.855 454.454 412.555 459.68C413.416 466.111 413.799 472.605 414.275 479.037C414.335 476.603 414.166 474.075 414.278 471.661C414.38 469.417 415.099 467.276 415.121 465C415.147 462.402 417.188 457.54 421.576 459.471C425.821 461.342 426.811 468.299 427.15 470.858C428.536 481.303 430.646 498.582 432.606 498.879C434.638 499.189 436.313 481.257 440.198 481.441C442.887 481.571 446.993 490.407 445.445 498.634C443.966 506.486 438.9 506.064 437.513 512.298C436.88 515.147 441.462 526.374 444.937 534.63C443.73 535.847 442.561 537.089 441.408 538.346C440.159 535.683 438.826 533.079 437.135 530.411C435.112 527.216 433.197 524.387 429.038 522.992C424.789 521.566 420.595 522.304 416.319 522.335C411.496 522.373 405.665 522.276 401.203 520.042C398.533 518.705 394.891 515.882 396.052 513.138C397.904 508.766 403.559 509.866 407.928 508.83C402.792 507.439 382.766 502.359 379.319 499.073C376.934 496.797 375.224 493.738 377.539 491.249C378.712 489.987 380.645 489.245 382.489 488.876C383.289 488.716 389.577 488.253 389.775 488.706C389.299 487.62 381.35 484.407 379.483 483.665Z" fill="#278A2A"/>
<path d="M431.606 511.641C435.166 505.284 438.261 498.381 440.709 491.345C440.993 490.532 441.481 489.404 440.847 488.405C436.631 496.12 433.325 504.263 428.807 511.869C424.324 506.209 421.43 499.85 417.285 494.109C416.381 492.859 416.893 491.769 417.202 490.785C418.886 485.387 421.449 480.822 422.335 475.31C418.586 479.914 416.152 485.055 414.192 490.459C409.271 484.744 405.417 478.762 401.924 472.53C401.089 471.045 401.496 469.757 401.515 468.619C401.591 463.701 401.975 459.366 401.52 454.548C399.962 459.073 399.547 463.68 399.333 468.451C392.449 458.678 385.771 450.158 376.403 441.914C376.212 442.099 376.022 442.285 375.831 442.474C382.436 449.543 388.839 455.562 393.81 463.634C390.056 461.084 386.369 458.372 381.922 456.846C391.94 462.755 399.743 470.031 403.425 479.834C398.256 476.947 392.824 474.841 387.245 472.777C389.52 475.327 393.026 476.903 396.061 478.228C404.654 481.981 410.554 488.463 415.645 495.195C416.512 496.34 417.295 497.812 418.129 499.016C411.178 496.746 404.43 494.087 397.254 492.529C400.012 494.652 403.146 495.882 406.441 497.184C407.029 497.417 407.587 497.732 408.182 497.868C418.92 500.312 423.417 506.478 427.835 514.79C419.034 514.295 410.225 513.021 401.455 512.541C402.718 513.392 404.602 513.928 405.972 514.169C413.517 515.503 420.62 516.167 428.128 516.863C430.222 517.056 435.793 523.595 437.627 525.464C438.506 526.361 439.501 528.288 440.757 527.673C442.479 526.83 440.304 525.461 439.859 524.253C439.551 523.412 430.184 514.181 431.606 511.641Z" fill="#09660E"/>
<path d="M379.199 532.045C378.174 532.605 358.96 538.401 354.015 533.282C352.584 530.616 352.976 528.964 355.38 527.174C358.691 524.709 363.43 523.95 366.492 521.261C362.802 521.458 349.006 521.939 341.127 516.289C339.79 515.332 337.466 513.642 337.137 511.204C336.81 508.768 338.306 506.169 340.724 505.206C344.151 503.841 347.11 506.67 359.915 510.85C364.86 512.465 369.676 513.731 369.647 513.721C367.799 513.156 366.594 512.576 364.938 511.682C363.176 510.736 361.177 510.012 359.763 508.629C357.436 506.352 358.612 503.081 362.023 502.885C366.205 502.645 370.39 504.986 373.992 506.769C378.425 508.962 382.75 511.407 387.064 513.783C385.504 512.77 383.815 511.827 382.288 510.799C380.868 509.843 379.706 508.64 378.239 507.71C376.564 506.647 374.052 503.72 376.674 502.434C379.21 501.189 384.022 503.535 385.785 504.409C392.983 507.979 404.828 513.967 405.633 513.164C406.467 512.332 395.381 504.294 396.713 502.54C397.635 501.323 404.638 502.962 409.482 507.016C414.105 510.886 412.25 513.103 415.854 516.274C417.5 517.725 426.201 520.104 432.632 521.803C433.042 522.865 433.482 523.918 433.935 524.968C431.822 524.483 429.719 524.058 427.463 523.775C424.764 523.435 422.333 523.195 420.132 524.592C417.883 526.017 417.052 528.292 415.737 530.318C414.256 532.607 412.374 535.315 409.532 536.514C407.832 537.232 404.869 537.809 403.454 536.15C401.202 533.512 403.68 531.293 404.373 528.814C401.867 530.67 392.328 538.054 389.124 538.35C386.907 538.554 384.391 538.124 383.503 536.028C383.052 534.964 383.174 533.753 383.51 532.734C383.657 532.293 385.322 529.144 385.675 529.235C384.825 529.018 380.263 531.465 379.199 532.045Z" fill="#5AAC50"/>
<g opacity="0.149994">
<g opacity="0.149994">
<path opacity="0.149994" d="M413.585 518.794C410.578 514.547 407.078 510.299 403.284 506.301C402.846 505.838 402.267 505.153 401.422 505.047C405.102 510.153 409.344 515.002 412.859 520.204C407.795 520.031 402.774 518.824 397.761 518.457C396.67 518.377 396.124 517.695 395.583 517.152C392.615 514.176 390.458 511.123 387.164 508.479C388.976 512.104 391.546 515.33 394.433 518.436C389.197 518.447 384.121 517.843 378.994 516.973C377.772 516.764 377.066 516.053 376.335 515.583C373.174 513.561 370.486 511.626 367.225 509.894C369.668 512.456 372.52 514.513 375.545 516.545C367.069 515.839 359.467 515.539 351.204 516.621C351.264 516.786 351.326 516.951 351.389 517.118C358.026 516.863 363.923 516.278 370.702 517.2C367.877 517.938 364.973 518.578 362.596 520.056C369.547 517.724 376.697 516.989 384.191 519.216C380.709 520.485 377.65 522.193 374.572 523.988C376.935 523.945 379.048 522.933 380.854 522.036C385.967 519.507 392.004 519.345 397.953 519.667C398.965 519.721 400.162 519.949 401.202 520.041C397.563 522.399 393.733 524.503 390.486 527.256C392.722 526.814 394.497 525.835 396.369 524.808C396.703 524.626 397.081 524.49 397.353 524.263C402.289 520.192 407.684 520.567 414.446 521.844C411.378 525.789 407.803 529.427 404.756 533.364C405.701 533.113 406.635 532.44 407.219 531.894C410.439 528.877 413.085 525.798 415.88 522.543C416.66 521.635 422.632 521.654 424.414 521.543C425.269 521.492 426.827 521.803 426.82 520.961C426.812 519.811 425.248 520.282 424.326 520.002C423.687 519.809 414.786 520.492 413.585 518.794Z" fill="#332E66"/>
</g>
</g>
<path d="M418.25 454.931C417.136 454.339 401.215 441.591 404.128 435.944C406.226 433.887 408.175 433.596 411.297 434.811C415.594 436.482 418.808 439.867 423.219 441.268C421.132 438.489 413.605 428.02 415.585 419.918C415.921 418.542 416.53 416.145 418.948 415.018C421.363 413.894 424.881 414.118 427.132 415.638C430.322 417.793 428.828 421.089 430.91 432.463C431.715 436.858 432.821 441.026 432.816 441C432.475 439.372 432.478 438.236 432.582 436.638C432.69 434.94 432.441 433.137 433.187 431.553C434.416 428.942 438.484 428.678 440.426 431.238C442.808 434.379 442.455 438.447 442.398 441.863C442.327 446.069 441.936 450.281 441.612 454.459C441.893 452.894 442.033 451.252 442.345 449.708C442.634 448.268 443.32 446.941 443.562 445.476C443.836 443.804 445.661 440.818 448.358 442.38C450.966 443.893 450.928 448.444 450.899 450.116C450.777 456.948 450.453 468.23 451.714 468.565C453.019 468.91 455.901 457.479 458.438 457.877C460.196 458.155 462.023 464.143 460.189 469.332C458.438 474.283 455.144 473.646 453.614 477.563C452.914 479.351 454.817 486.915 456.287 492.485C455.374 493.181 454.479 493.897 453.597 494.623C453.036 492.82 452.418 491.044 451.571 489.203C450.554 487 449.574 485.038 446.974 483.839C444.318 482.614 441.485 482.787 438.666 482.5C435.488 482.177 431.66 481.692 428.943 479.931C427.316 478.876 425.2 476.799 426.235 475.111C427.887 472.428 431.501 473.546 434.481 473.194C431.237 471.926 418.558 467.21 416.614 464.844C415.27 463.206 414.447 461.113 416.218 459.675C417.116 458.947 418.462 458.609 419.711 458.505C420.254 458.457 424.439 458.614 424.526 458.92C424.319 458.185 419.405 455.541 418.25 454.931Z" fill="#5AAC50"/>
<g opacity="0.149994">
<g opacity="0.149994">
<path opacity="0.149994" d="M449.79 476.712C452.764 472.874 455.485 468.651 457.795 464.294C458.062 463.789 458.493 463.098 458.176 462.409C454.636 467.076 451.654 472.083 447.925 476.659C445.535 472.688 444.259 468.382 442.099 464.386C441.629 463.515 442.074 462.85 442.374 462.237C444.018 458.884 446.159 456.126 447.288 452.638C444.363 455.335 442.251 458.471 440.426 461.81C437.752 457.775 435.808 453.642 434.126 449.377C433.724 448.358 434.119 447.558 434.243 446.827C434.783 443.664 435.463 440.898 435.643 437.761C434.169 440.564 433.438 443.501 432.825 446.56C429.26 439.768 425.709 433.797 420.361 427.81C420.216 427.915 420.071 428.024 419.928 428.13C423.575 433.16 427.193 437.499 429.667 443.06C427.447 441.146 425.29 439.134 422.514 437.83C428.522 442.358 432.938 447.609 434.39 454.188C431.273 451.956 427.907 450.207 424.439 448.475C425.683 450.284 427.835 451.551 429.701 452.625C434.986 455.662 438.228 460.262 440.914 464.968C441.37 465.766 441.739 466.771 442.168 467.606C437.818 465.643 433.638 463.443 429.07 461.922C430.675 463.489 432.616 464.507 434.657 465.584C435.02 465.776 435.357 466.019 435.736 466.15C442.561 468.5 444.909 472.795 446.995 478.469C441.25 477.516 435.577 476.058 429.853 475.118C430.599 475.756 431.787 476.239 432.664 476.492C437.499 477.896 442.11 478.835 446.983 479.825C448.343 480.101 451.362 484.715 452.383 486.052C452.874 486.693 453.336 488.007 454.224 487.7C455.442 487.282 454.146 486.244 453.974 485.433C453.853 484.869 448.601 478.246 449.79 476.712Z" fill="#332E66"/>
</g>
</g>
<path d="M617.853 839.924C708.869 922.011 842.982 988.326 957.006 901.757C1090.09 800.721 976.946 623.908 1059.58 502.733C1108.23 431.378 1174.89 456.569 1243.48 429.194C1315.35 400.515 1354.87 330.284 1362.66 253.908C1375.42 128.7 1288.41 63.0999 1182.57 24.8532C977.801 -49.1409 661.31 -13.4547 603.671 135.262C575.767 207.264 625.746 261.339 579.588 357.292C544.147 430.966 501.457 426.582 476.246 485.125C430.459 591.446 513.812 746.089 617.853 839.924Z" fill="#CCDEF8"/>
<path d="M409.998 842.939C462.122 966.747 599.592 1094.83 744.809 1006.97C869.137 931.741 843.974 712.215 987.167 661.556C1121.37 614.08 1220.2 739.402 1323.09 565.042C1386.76 457.163 1368.79 330.033 1311.95 228.848C1214.71 55.7474 852.651 -141.546 693.301 99.7308C651.434 163.124 657.879 242.899 619.348 308.984C573.941 386.863 511.743 395.98 450.752 449.768C335.519 551.393 357.902 719.203 409.998 842.939Z" fill="#A9C8F4"/>
<g opacity="0.199997">
<g opacity="0.199997">
<path opacity="0.199997" d="M754.087 -19.258C747.26 -21.2434 740.451 -22.9702 733.636 -24.4351C635.05 -45.6382 562.088 -22.9907 518.246 -0.258084C443.107 38.7015 395.131 91.9603 383.155 149.707C370.378 211.328 401.064 257.057 433.553 305.47C463.174 349.614 493.805 395.261 491.452 455.391C489.333 509.584 450.37 537.433 409.118 566.918C368.275 596.112 326.037 626.299 316.388 684.776C306.137 746.875 331.62 820.451 375.657 855.916C407.76 881.774 458.603 895.576 522.688 895.857C585.895 896.131 656.158 883.308 725.874 858.777C913.512 792.755 1044.08 663.728 1075.15 513.623C1097.69 404.754 1069.18 280.349 996.937 172.309C933.265 77.0826 843.749 6.82614 754.087 -19.258ZM432.908 886.489C409.753 879.754 389.9 870.103 374.311 857.547C329.726 821.641 303.919 747.22 314.28 684.438C324.074 625.105 366.672 594.657 407.869 565.211C448.686 536.036 487.243 508.48 489.321 455.311C491.645 395.858 461.209 350.498 431.772 306.634C399.033 257.845 368.109 211.762 381.064 149.287C393.171 90.9073 441.535 37.1364 517.251 -2.12088C561.413 -25.0186 634.878 -47.8312 734.089 -26.4919L733.864 -25.4627L734.089 -26.4919C830.974 -5.6562 929.901 68.2239 998.717 171.148C1071.27 279.652 1099.89 404.633 1077.24 514.043C1060.53 594.781 1017.14 667.789 948.264 731.038C888.531 785.894 811.877 830.75 726.59 860.761C615.994 899.676 507.382 908.155 432.908 886.489Z" fill="#E8E8FE"/>
</g>
</g>
<g opacity="0.199997">
<g opacity="0.199997">
<path opacity="0.199997" d="M943.676 293.18H943.711H943.676ZM1054.73 264.929C1024.09 264.929 986.157 271.788 944.369 294.429C822.351 360.538 742.779 570.171 823.867 720.593C874.674 814.835 987.784 875.596 1126.45 883.126C1233.06 888.922 1326.82 860.761 1359.81 813.064C1382.05 780.892 1384.34 726.936 1365.11 687.553C1347.05 650.531 1312.84 638.618 1279.77 627.094C1246.06 615.352 1214.22 604.263 1201.82 568.063C1188.11 528.043 1199.5 491.379 1210.52 455.92C1222.52 417.289 1233.86 380.798 1213.08 342.279C1193.57 306.124 1150.93 279.958 1093 268.6C1082.13 266.467 1069.25 264.929 1054.73 264.929ZM1153.81 886.723C1144.75 886.723 1135.57 886.478 1126.29 885.972C986.604 878.386 872.597 817.065 821.318 721.932C739.507 570.174 819.834 358.646 942.983 291.93C1005.32 258.147 1059.27 259.073 1093.56 265.805C1152.35 277.333 1195.7 304.016 1215.62 340.939C1236.97 380.502 1225.46 417.543 1213.28 456.756C1202.4 491.782 1191.15 527.999 1204.56 567.151C1216.51 602.034 1247.7 612.902 1280.72 624.406C1314.36 636.119 1349.13 648.234 1367.72 686.314C1387.35 726.543 1384.97 781.724 1362.19 814.673C1331.55 858.973 1249.75 886.723 1153.81 886.723Z" fill="#DFE6FE"/>
</g>
</g>
<g opacity="0.279999">
<g opacity="0.279999">
<path opacity="0.279999" d="M895.287 621.62C895.287 629.962 797.779 636.724 677.499 636.724C557.219 636.724 459.712 629.962 459.712 621.62C459.712 613.278 557.219 606.516 677.499 606.516C797.779 606.516 895.287 613.278 895.287 621.62Z" fill="#4B4B7F"/>
</g>
</g>
<path d="M715.394 277.419C721.827 277.4 728.26 277.38 734.696 277.363C736.624 282.545 732.845 284.48 729.123 286.073C725.103 287.794 719.044 285.515 716.677 281.771C715.84 280.448 715.295 279.015 715.394 277.419Z" fill="#F7D45E"/>
<path d="M617.853 610.894L616.669 610.46C615.3 609.962 614.593 608.45 615.1 607.102L637.227 548.265C637.732 546.917 639.268 546.223 640.637 546.722L641.823 547.154C643.192 547.653 643.897 549.165 643.391 550.513L621.265 609.349C620.758 610.697 619.222 611.393 617.853 610.894Z" fill="#EFF4FC"/>
<path d="M694.873 610.894L696.056 610.46C697.425 609.962 698.132 608.45 697.625 607.102L675.497 548.265C674.993 546.917 673.456 546.223 672.087 546.722L670.901 547.154C669.532 547.653 668.827 549.165 669.336 550.513L691.459 609.349C691.968 610.697 693.502 611.393 694.873 610.894Z" fill="#EFF4FC"/>
<path d="M685.665 548.868H627.062C622.679 548.868 619.096 545.338 619.096 541.022V537.292C619.096 532.978 622.679 529.448 627.062 529.448H685.665C690.045 529.448 693.632 532.978 693.632 537.292V541.022C693.632 545.338 690.045 548.868 685.665 548.868Z" fill="#EFF4FC"/>
<path d="M676.94 585.124L673.516 600.827L685.008 602.167L688.28 586.706L676.94 585.124Z" fill="#390B36"/>
<path d="M671.543 372.896C667.566 373.303 656.829 374.542 647.732 382.352C644.656 384.992 642.697 386.752 642.069 389.723C640.691 396.274 647.093 403.204 652.831 406.346C652.895 407.235 652.893 408.29 652.73 409.466C652.653 410.028 652.55 410.552 652.429 411.03C652.307 411.529 652.2 412.042 652.078 412.51C652.091 412.736 652.167 413.795 652.614 415.155C653.183 416.968 654.394 419.297 656.94 420.838C660.702 423.134 665.781 422.742 669.081 419.855C672.458 416.893 672.442 412.648 672.442 411.967C671.982 411.891 671.199 411.665 670.554 411.03C670.386 410.864 670.248 410.698 670.125 410.503C669.817 410.09 669.518 409.501 669.541 408.877C669.966 408.738 670.389 408.575 670.815 408.351C671.31 408.093 671.745 407.803 672.124 407.504C674.792 405.233 677.46 402.957 680.128 400.686C680.312 396.125 680.617 391.473 681.056 386.738C681.114 386.113 681.174 385.488 681.237 384.866C681.472 380.876 681.707 376.887 681.943 372.896C679.04 372.602 675.514 372.491 671.543 372.896Z" fill="#390B36"/>
<path d="M699.555 579.476L696.134 595.176L707.624 596.517L710.896 581.057L699.555 579.476Z" fill="#390B36"/>
<path d="M699.758 503.544H726.437C726.437 503.544 742.689 502.649 743.658 515.785C744.629 528.922 719.821 566.488 715.94 586.551C714.856 586.463 713.772 586.375 712.687 586.287C706.335 585.771 699.98 585.254 693.626 584.738C698.985 566.546 704.341 548.355 709.7 530.163L669.737 530.385C666.778 530.402 663.826 529.978 661.03 529.023C653.251 526.365 641.372 522.558 647.847 501.456L699.758 503.544Z" fill="#332E66"/>
<path d="M693.273 588.958L670.959 587.145L688.853 530.157L648.892 530.383C645.928 530.398 642.983 529.976 640.173 529.023C639.959 528.947 639.757 528.872 639.544 528.813C631.947 526.214 621.189 522.178 626.607 502.79C626.729 502.351 626.867 501.913 627.005 501.458L642.029 502.064L678.909 503.544H705.598C705.598 503.544 721.833 502.653 722.816 515.783C723.783 528.918 697.156 568.905 693.273 588.958Z" fill="#47427D"/>
<path d="M685.646 465.642L685.63 465.855L682.347 503.543C668.804 503.539 655.264 503.534 641.723 503.528L626.608 502.79L625.748 502.742L635.034 479.289L635.401 478.352L641.632 463.195L683.727 465.537L685.646 465.642Z" fill="#FF9996"/>
<path d="M773.899 467.833C773.69 465.739 770.19 463.687 768.843 462.278C767.707 461.087 766.907 460.553 765.415 459.85C763.53 458.958 761.522 458.119 759.444 457.802C756.621 457.369 753.76 458.532 750.995 458.949C748.162 459.379 745.067 458.677 743.234 461.395C741.869 463.414 742.216 467.211 744.877 467.838C745.801 468.056 746.665 467.682 747.628 467.93C749.055 468.297 749.989 469.391 751.576 469.554C754.669 469.873 757.252 467.584 760.248 467.691C761.722 467.745 763.017 468.487 764.235 469.238C765.751 470.177 767.192 470.841 769.002 470.972C770.165 471.057 772.777 471.292 773.754 470.594C774.665 469.944 774.183 468.697 773.899 467.833Z" fill="#390B36"/>
<path d="M678.178 467.478C679.582 467.021 681.032 467.199 682.469 467.149C683.13 467.126 683.871 467.379 684.411 466.751C681.697 463.965 678.096 463.587 674.508 463.336C668.696 462.931 662.828 463.063 657.082 462.101C652.178 461.281 647.223 460.372 643.215 456.999C640.59 454.787 639.028 451.972 637.945 448.831C637.826 448.486 637.881 448.031 637.384 448.018C637.31 448.016 637.22 448.557 637.141 448.85C637.141 451.374 638.077 453.741 638.452 456.204C638.58 457.053 638.424 462.162 640.498 462.858C641.929 463.34 643.5 463.417 645.003 463.698C649.328 464.508 653.734 464.834 658.002 465.96C658.884 466.193 659.711 466.476 660.377 467.111C663.148 467.381 665.692 466.203 668.377 465.858C671.89 465.409 675.178 465.34 678.178 467.478Z" fill="#FF9996"/>
<path d="M651.773 412.522C651.496 412.466 651.2 412.417 650.884 412.382C650.249 412.308 649.668 412.298 649.16 412.323C649.276 412.874 649.459 413.677 649.729 414.633C650.356 416.849 650.721 418.453 651.795 419.878C654.952 424.058 659.364 425.15 664.555 424.525C666.931 424.24 668.9 423.532 670.37 422.165C671.027 421.553 671.44 420.779 672.32 419.283C673.359 417.513 673.881 416.606 673.91 415.549C673.926 415.029 673.868 413.608 672.442 411.967C672.073 412.248 671.572 412.704 671.17 413.379C670.858 413.904 670.732 414.348 670.687 414.505C669.384 419.195 667.147 420.861 662.114 420.88C660.176 420.888 658.298 420.891 656.504 419.867C655.117 419.075 654.053 418.163 653.505 416.926C653.222 416.287 653.317 416.067 653.107 414.402C652.863 412.459 652.366 409.7 652.086 409.717C651.971 409.724 651.833 410.216 651.773 412.522Z" fill="#FF9996"/>
<path d="M689.349 453.449C688.427 454.883 687.568 456.363 686.677 457.829C686.646 457.847 686.617 457.862 686.586 457.875C686.294 458.028 686.065 458.223 685.863 458.434C685.863 458.434 685.832 458.449 685.832 458.464C685.51 458.827 685.312 459.281 685.174 459.841C684.789 461.562 684.454 463.271 684.483 465.04C684.498 465.294 684.498 465.583 684.467 465.839V465.855C684.454 465.992 684.438 466.126 684.407 466.247C684.407 466.262 684.407 466.262 684.389 466.247C684.269 466.656 683.947 466.958 683.286 467.033C682.518 466.958 682.026 466.428 681.461 466.021C680.661 465.445 679.803 465.025 678.896 464.707C678.867 464.692 678.82 464.692 678.791 464.677C678.222 464.493 677.624 464.375 677.024 464.283C676.995 464.283 676.946 464.268 676.917 464.268C673.954 463.83 670.977 463.589 668 463.512C662.122 463.392 656.322 462.908 650.613 461.533C645.164 460.202 640.56 457.724 637.83 452.586C637.445 451.877 637.23 451.076 636.863 450.349C636.634 449.898 636.356 449.473 635.956 449.11C635.696 449.14 635.465 449.232 635.251 449.351C634.866 449.565 634.575 449.911 634.315 450.303C632.488 453.131 630.462 455.82 628.513 458.571C627.563 459.946 627.701 460.369 629.435 460.701C631.643 461.111 633.886 461.306 636.078 461.82C637.185 462.078 640.698 462.696 643.03 463.044C643.352 463.09 643.675 463.134 643.999 463.195C648.112 463.921 652.3 464.252 656.353 465.327C657.458 465.612 658.839 465.612 659.221 467.111C657.073 466.927 655.157 467.321 654.343 469.541C653.683 471.387 653.943 473.199 655.339 474.725C654.634 475.329 653.821 475.603 652.854 475.511C651.273 475.36 649.661 475.329 648.065 475.104C644.811 474.651 641.496 475.058 638.257 474.651C629.971 473.591 621.654 473.304 613.335 472.851C608.653 472.61 605.416 468.228 607.135 463.935C607.504 463.013 607.84 462.093 608.178 461.155C609.084 458.722 610.007 456.288 611.617 454.173C613.028 451.498 614.456 448.838 615.867 446.163C616.161 445.544 616.619 444.517 617.217 443.278C619.46 438.578 623.357 431.082 629.664 422.242C634.237 415.833 635.587 415.031 636.311 414.639C640.346 412.524 646.207 412.312 648.112 412.312C648.479 412.312 648.71 412.328 648.725 412.328C649.032 412.328 649.292 412.343 649.492 412.358C649.339 413.037 649.094 414.368 649.339 415.968C649.43 416.515 649.584 417.102 649.815 417.693C650.889 420.458 653.083 421.787 654.203 422.483C656.92 424.114 660.019 424.372 663.305 424.099C664.779 423.978 668.247 423.087 670.317 419.839C672.56 416.349 671.468 412.584 671.284 411.966C674.892 412.75 678.498 413.521 682.09 414.307C682.073 415.666 682.135 417.934 682.595 420.668C684.16 429.812 687.475 431.671 690.054 440.406C691.343 444.758 692.035 449.232 689.349 453.449Z" fill="#FF9996"/>
<path d="M686.099 474.488C686.087 474.379 686.056 474.28 686.002 474.184C685.043 472.146 683.033 471.052 681.559 469.476C680.992 468.87 680.396 468.279 679.838 467.65C679.866 467.65 673.483 464.023 669.881 464.371C666.865 464.661 663.985 465.761 660.933 465.809C660.179 465.862 659.418 465.803 658.67 465.92C656.81 466.206 655.123 467.817 654.746 469.637C654.328 471.65 655.084 473.599 656.639 474.519L657.509 474.467C657.548 474.505 657.579 474.544 657.62 474.58C657.962 474.742 658.299 474.819 658.608 474.517C659.294 474.517 659.981 474.469 660.583 474.926C662.783 476.597 665.172 476.496 667.638 475.63C668.667 475.266 669.708 474.932 670.743 474.586C673.287 473.746 675.335 475.205 677.184 476.368C679.819 478.026 682.567 477.708 685.264 477.444C686.99 477.274 686.489 475.677 686.099 474.488Z" fill="#390B36"/>
<path d="M748.276 458.903C747.049 461.88 745.82 464.858 744.594 467.82C720.912 467.653 697.495 467.776 696.879 467.758C696.879 467.789 696.005 467.758 696.005 467.743C693.12 465.523 688.776 460.383 687.059 458.345C686.644 457.829 686.383 457.528 686.35 457.498C686.35 457.408 686.35 457.331 686.383 457.257C686.475 456.167 687.149 455.352 687.749 454.461C689.174 452.329 690.25 450.138 690.25 447.434C690.25 446.497 690.205 445.604 690.112 444.669C689.329 437.565 685.892 430.915 685.892 430.9C685.968 429.269 683.943 425.656 683.943 425.656C682.653 423.36 682.653 421.046 682.653 418.796C682.653 416.906 682.976 415.35 683.253 414.308C685.401 415.562 688.362 417.692 690.85 421.094C694.269 425.794 694.607 430.024 696.25 435.856C697.402 439.969 699.444 445.755 703.233 452.482C718.242 454.628 733.252 456.758 748.276 458.903Z" fill="#FF9996"/>
<g opacity="0.149994">
<g opacity="0.149994">
<path opacity="0.149994" d="M650.501 415.969C647.279 417.39 642.506 416.545 639.007 417.541C626.437 421.138 630.274 449.503 611.844 460.081C610.846 460.656 610.001 461.048 609.572 461.23C609.495 461.215 609.419 461.184 609.341 461.155C610.248 458.721 611.169 456.289 612.778 454.172C614.192 451.499 615.617 448.837 617.031 446.164C617.322 445.545 617.781 444.518 618.381 443.277C620.621 438.577 624.519 431.081 630.826 422.241C635.401 415.833 636.75 415.032 637.473 414.64C641.508 412.524 647.37 412.313 649.273 412.313C649.642 412.313 649.873 412.328 649.889 412.328C650.196 412.328 650.456 412.344 650.654 412.357C650.501 413.038 650.256 414.367 650.501 415.969Z" fill="#20073D"/>
</g>
</g>
<g opacity="0.559998">
<g opacity="0.559998">
<path opacity="0.559998" d="M687.058 458.345C687.043 458.375 687.025 458.404 687.025 458.435C687.025 458.435 686.996 458.45 686.996 458.463C686.674 458.829 686.474 459.28 686.336 459.84C685.954 461.563 685.616 463.271 685.645 465.039C685.66 465.296 685.66 465.582 685.631 465.841V465.856C685.616 465.992 685.6 466.125 685.569 466.248C685.569 466.263 685.569 466.263 685.553 466.248C685.338 466.34 685.109 466.368 684.878 466.248C683.359 465.431 681.716 465.055 680.06 464.707C680.029 464.691 679.982 464.691 679.953 464.678C679.324 464.54 678.693 464.42 678.079 464.269C677.741 464.177 677.419 464.087 677.097 463.995C676.545 463.829 675.961 463.588 675.469 463.301C674.934 462.984 674.58 462.425 674.811 461.835C674.98 461.458 675.394 461.018 675.792 460.898C676.912 460.595 678.079 460.444 679.231 460.173C681.794 459.569 684.064 458.345 686.383 457.257C686.352 457.331 686.352 457.408 686.352 457.498C686.383 457.528 686.643 457.829 687.058 458.345Z" fill="#20073D"/>
</g>
</g>
<g opacity="0.149994">
<g opacity="0.149994">
<path opacity="0.149994" d="M644.44 493.481C643.533 496.141 642.691 499.041 642.03 502.063C641.924 502.546 641.815 503.03 641.724 503.529C640.005 512.038 639.667 521.316 642.566 528.707C641.508 528.781 640.512 528.814 639.545 528.814C631.946 526.213 621.189 522.179 626.606 502.789L625.748 502.743L635.032 479.289C644.5 472.292 655.105 483.763 644.44 493.481Z" fill="#20073D"/>
</g>
</g>
<path d="M692.827 405.996C691.946 404.168 691.13 402.552 691.13 402.552C689.545 399.634 688.526 398.534 687.349 395.295C685.615 390.505 689.159 387.061 690.295 382.738C691.338 378.703 690.526 372.795 687.303 369.999C683.866 367.022 679.446 368.034 676.362 364.089C673.306 360.176 672.218 356.759 667.061 355.295C657.192 352.514 645.667 357.41 639.405 365.207C637.226 367.913 635.708 370.693 635.172 374.2C634.358 379.474 634.894 383.086 630.368 386.562C624.012 391.444 612.809 391.563 615.526 402.55C616.971 408.399 616.124 410.197 612.549 414.912C610.139 418.084 607.361 422.467 607.269 426.412C607.178 430.705 609.281 436.007 612.396 439.045C613.132 439.74 614.712 441.116 617.169 441.917C621.188 443.218 624.994 442.099 626.577 441.418C635.921 437.353 631.639 420.05 640.372 416.316C644.64 414.488 648.215 417.465 650.901 414.625C652.068 413.384 652.575 411.556 652.757 409.533C652.926 407.885 652.881 406.116 652.85 404.393C652.804 402.581 652.635 401.055 652.45 399.921V399.905C652.419 399.741 652.406 399.588 652.375 399.452C650.961 398.848 649.796 398.469 649.029 398.152C646.343 397.033 645.761 396.626 645.285 396.142C644.64 395.477 644.118 394.632 643.718 393.542C642.124 389.056 645.223 383.207 649.796 384.719C651.27 385.201 652.973 387.725 654.4 387.845C655.843 387.981 659.802 385.231 661.307 384.612C667.261 382.193 674.168 379.669 678.143 374.246C678.003 376.149 680.551 381.12 680.749 384.264C680.749 384.264 680.749 384.369 680.766 384.476C680.842 385.958 681.656 400.645 674.028 405.512C673.108 406.087 672.094 406.523 671.265 406.992C670.313 407.506 669.593 408.082 669.5 408.958C669.455 409.441 669.577 409.864 669.871 410.334C670.001 410.545 670.094 410.698 670.216 410.854C670.218 410.854 670.374 411.051 670.56 411.223C672.958 413.491 677.689 414.273 677.689 414.273C684.58 415.411 685.466 428.999 693.336 430.265C693.742 430.332 696.961 430.808 698.66 429.024C702.171 425.335 696.882 414.386 692.827 405.996Z" fill="#F2EADC"/>
<path d="M669.5 408.957C669.456 409.441 669.578 409.866 669.869 410.334C668.32 410.59 666.877 411.405 665.252 411.42C661.583 411.42 657.944 411.315 654.523 409.85C653.938 409.607 653.371 409.485 652.758 409.533C652.927 407.885 652.88 406.118 652.851 404.393C652.802 402.58 652.633 401.054 652.451 399.92C653.189 400.161 653.954 400.299 654.507 400.993C658.191 405.724 663.44 406.753 669.071 406.856C669.731 406.871 670.423 406.812 671.052 406.932C671.128 406.948 671.205 406.963 671.266 406.994C670.314 407.506 669.594 408.082 669.5 408.957Z" fill="#2D022C"/>
<path d="M654.292 361.005C653.045 362.469 651.202 362.949 649.744 364.122C648.152 365.401 646.818 367.051 645.858 368.835C644.849 370.711 644.297 372.797 643.429 374.738C642.511 376.795 641.452 378.788 640.394 380.776C639.922 381.664 637.683 385.195 636.425 384.427C635.39 383.792 636.594 382.717 636.986 382.128C637.553 381.274 637.996 380.342 638.524 379.465C640.85 375.6 642.225 371.359 644.138 367.303C645.134 365.189 646.468 363.554 648.441 362.25C650.482 360.9 651.884 360.693 654.292 361.005Z" fill="#E6DBCA"/>
<path d="M620.139 400.067C621.115 398.294 622.259 396.529 623.892 395.271C625.782 393.814 627.937 393.672 630.162 393.026C632.431 392.368 634.937 391.609 636.745 390.053C637.707 389.225 638.522 388.229 639.301 387.238C639.714 386.712 640.177 385.624 640.99 386.118C642.557 387.072 638.703 390.734 637.98 391.391C636.19 393.024 633.842 394.034 631.545 394.789C629.234 395.554 626.922 395.741 624.824 397.076C623.395 397.983 621.999 400.514 620.139 400.067Z" fill="#E6DBCA"/>
<path d="M668.711 365.816C667.715 369.573 666.857 373.663 663.711 376.312C662.833 377.05 661.824 377.608 660.82 378.157C659.82 378.702 658.625 379.539 657.507 379.809C656.623 380.021 655.769 379.474 656.522 378.597C656.876 378.182 657.785 377.948 658.258 377.658C658.787 377.337 659.284 376.973 659.777 376.61C663.406 373.943 667.306 370.285 666.406 365.315C666.259 364.489 663.573 360.009 665.995 360.263C668.03 360.477 668.045 364.483 668.711 365.816Z" fill="#E6DBCA"/>
<g opacity="0.559998">
<g opacity="0.559998">
<path opacity="0.559998" d="M637.075 450.33C636.823 449.097 637.473 448.131 638.091 447.185C640.522 443.471 643.071 439.825 644.157 435.434C644.279 434.949 644.644 434.431 645.227 434.469C646.101 434.528 646.025 435.287 646.021 435.872C646.017 436.589 646.074 437.37 645.817 438.012C643.938 442.729 641.452 447.081 637.58 450.537C637.347 450.619 637.176 450.56 637.075 450.33Z" fill="#20073D"/>
</g>
</g>
<path d="M691.691 406.218C689.81 403.554 687.149 401.537 685.262 398.881C683.8 396.819 681.829 392.863 684.044 390.731C684.386 394.645 686.31 398.085 688.864 401.026C690.241 402.609 691.699 403.891 693.424 405.093C694.956 406.162 696.472 407.317 697.674 408.749C698.814 410.109 698.618 413.75 698.492 413.251C697.808 410.576 694.725 406.292 691.691 406.218Z" fill="#E6DBCA"/>
<path d="M695.92 593.537C696.241 593.152 696.472 592.625 697.14 592.793C700.12 594.483 703.198 595.684 706.76 594.984C707.589 594.82 708.373 595.179 708.855 595.96C710.03 599.918 709.538 604.178 711.168 608.075C711.492 608.851 718.739 615.267 721.71 618.102C722.225 618.594 722.893 618.946 723.343 619.481C724.603 620.973 726.256 622.866 725.194 624.573C724.221 626.141 722.157 624.55 720.657 624.151C715.364 622.739 710.127 621.124 704.841 619.686C703.216 619.242 702.305 618.51 701.689 616.842C700.439 613.471 699.744 609.884 697.773 606.302C696.182 608.966 694.767 611.331 693.893 613.98C693.536 615.064 693.293 616.282 691.679 615.852C690.209 615.46 690.161 614.267 690.419 613.14C691.943 606.522 692.429 599.619 695.92 593.537Z" fill="#332E66"/>
<path d="M673.854 595.94C674.175 595.557 674.406 595.028 675.074 595.198C678.055 596.886 681.132 598.089 684.694 597.387C685.523 597.225 686.307 597.584 686.789 598.365C687.964 602.321 687.472 606.581 689.102 610.478C689.426 611.256 696.673 617.672 699.644 620.505C700.159 620.997 700.827 621.351 701.277 621.884C702.537 623.378 704.19 625.269 703.128 626.978C702.155 628.544 700.091 626.953 698.592 626.554C693.298 625.142 688.061 623.529 682.775 622.091C681.15 621.647 680.239 620.913 679.624 619.245C678.375 615.874 677.678 612.287 675.707 608.706C674.116 611.369 672.701 613.736 671.827 616.385C671.47 617.469 671.227 618.685 669.613 618.255C668.143 617.863 668.095 616.67 668.353 615.543C669.877 608.927 670.363 602.023 673.854 595.94Z" fill="#332E66"/>
<path d="M613.549 638.913H608.351L640.974 477.806H646.174L613.549 638.913Z" fill="#EFF4FC"/>
<path d="M879.344 638.913H884.544L851.919 477.806H846.72L879.344 638.913Z" fill="#EFF4FC"/>
<path d="M911.339 483.576H581.554C579.119 483.576 577.127 481.615 577.127 479.215V477.142C577.127 474.742 579.119 472.78 581.554 472.78H911.339C913.776 472.78 915.768 474.742 915.768 477.142V479.215C915.768 481.615 913.776 483.576 911.339 483.576Z" fill="#EFF4FC"/>
<path d="M494.315 640.9C494.221 641.17 494.315 640.9 494.315 640.9C492.472 640.128 491.425 638.411 492.332 635.764C500.154 612.92 508.143 588.568 515.976 565.737C516.883 563.096 518.665 562.57 520.5 563.354C520.59 563.077 520.5 563.354 520.5 563.354C522.339 564.14 523.281 565.836 522.409 568.492C514.885 591.435 506.834 615.736 498.897 638.52C497.979 641.156 496.157 641.673 494.315 640.9Z" fill="#EFF4FC"/>
<path d="M574.494 641.748C574.604 641.994 574.494 641.748 574.494 641.748C576.344 641.025 577.48 639.308 576.643 636.65C569.431 613.702 562.06 589.345 555.86 566.063C555.143 563.366 553.46 562.848 551.648 563.59C551.555 563.32 551.648 563.59 551.648 563.59C549.838 564.334 548.787 565.994 549.446 568.705C555.124 592.133 562.611 616.404 569.948 639.27C570.798 641.918 572.641 642.471 574.494 641.748Z" fill="#EFF4FC"/>
<path d="M554.537 412.145C562.001 423.278 567.836 434.879 572.598 447.409C573.722 450.373 574.786 453.71 575.703 456.796C592.948 458.903 610.153 460.316 627.541 461.115C630.642 459.815 634.613 458.444 637.906 458.876C647.004 460.075 653.033 464.634 657.709 472.127C650.635 471.263 643.604 470.34 636.539 469.468C614.491 471.355 592.323 473.231 570.25 473.581C566.881 473.634 566.289 473.489 563.999 470.533C556.853 461.308 551.002 450.264 546.466 439.259C547.833 438.047 549.779 436.59 550.711 435.123C555.424 427.704 556.321 420.551 554.537 412.145Z" fill="#B86A4E"/>
<path d="M550.279 408.016C550.277 407.473 550.264 406.94 550.272 406.383C552.188 406.104 553.705 406.632 555.078 408.045C560.004 413.108 563.377 418.824 566.199 425.224C566.909 426.836 567.541 428.348 568.009 430.023C568.477 431.7 568.7 433.037 567.381 434.521C566.061 436.008 563.861 436.739 561.921 437.456C561.068 437.773 560.882 437.184 560.358 436.741C559.48 435.999 558.965 435.205 558.692 434.161C556.336 425.199 554.163 416.443 550.279 408.016Z" fill="#696CDA"/>
<path d="M550.279 408.016C550.277 407.473 550.264 406.94 550.272 406.383C552.188 406.104 553.705 406.632 555.078 408.045C560.004 413.108 563.377 418.824 566.199 425.224C566.909 426.836 567.541 428.348 568.009 430.023C568.477 431.7 568.7 433.037 567.381 434.521C566.061 436.008 563.861 436.739 561.921 437.456C561.068 437.773 560.882 437.184 560.358 436.741C559.48 435.999 558.965 435.205 558.692 434.161C556.336 425.199 554.163 416.445 550.279 408.016Z" fill="#6293FA"/>
<path d="M537.289 410.953C537.71 411.428 538.133 411.899 538.537 412.39C538.033 411.968 537.615 411.521 537.289 410.953Z" fill="#CA795A"/>
<path d="M563.609 598.403C560.187 602.08 556.774 605.763 553.358 609.44C556.218 611.538 559.086 613.63 561.951 615.722C565.273 612.081 568.598 608.44 571.934 604.811C569.159 602.675 566.384 600.539 563.609 598.403Z" fill="#CA795A"/>
<path d="M554.548 607.299C554.933 607.035 555.482 606.718 555.851 607.24C557.682 609.833 559.605 611.961 562.721 613.103C563.448 613.37 564.125 613.973 563.945 614.789C563.129 618.487 561.038 621.858 560.473 625.656C560.36 626.413 560.356 627.052 560.702 627.746C561.224 631.576 563.257 634.783 564.591 638.341C564.823 638.959 565.18 639.586 565.306 640.167C565.663 641.791 566.184 644.118 564.531 645.022C562.875 645.923 562.04 643.789 561.015 642.819C557.391 639.399 553.7 635.894 550.097 632.392C548.991 631.318 548.565 630.35 548.804 628.711C549.286 625.398 550.226 621.91 550.299 618.476C547.981 619.881 545.703 621.239 543.68 623.086C542.852 623.839 542.052 624.528 541.066 623.633C540.08 622.738 540.497 621.753 541.214 620.914C545.423 615.984 549.156 610.991 554.548 607.299Z" fill="#332E66"/>
<path d="M658.39 602.5C659.883 607.219 661.374 611.94 662.869 616.66C666.18 615.3 669.493 613.94 672.806 612.581C671.309 607.95 669.812 603.317 668.314 598.683C665.005 599.955 661.697 601.227 658.39 602.5Z" fill="#CA795A"/>
<path d="M661.331 613.118C661.426 612.67 661.605 612.07 662.238 612.198C665.395 612.827 668.306 613.062 671.38 611.785C672.097 611.487 673.017 611.466 673.46 612.177C675.468 615.391 676.324 619.24 678.582 622.357C679.033 622.981 679.483 623.445 680.221 623.713C683.299 626.128 687.033 627.073 690.505 628.744C691.107 629.033 691.81 629.249 692.311 629.58C693.705 630.507 695.733 631.834 695.16 633.608C694.587 635.381 692.478 634.396 691.053 634.389C686.012 634.36 680.848 634.316 675.771 634.217C674.209 634.188 673.219 633.777 672.238 632.432C670.254 629.71 668.485 626.558 666.12 624.034C665.424 626.614 664.723 629.119 664.549 631.823C664.477 632.928 664.37 633.958 663.03 633.979C661.69 634 661.292 633.004 661.224 631.918C660.822 625.524 660.014 619.416 661.331 613.118Z" fill="#332E66"/>
<path d="M643.896 522.748C643.853 520.834 642.929 519.352 640.929 518.363C637.853 516.843 634.569 515.48 631.355 514.237C628.579 513.162 625.602 512.284 622.817 511.338C610.251 507.064 597.262 503.523 584.666 499.693C577.58 497.538 570.931 495.708 563.996 493.323C562.033 492.65 560.132 492.073 558.027 492.652C556.66 493.027 556.124 494.452 555.421 495.551C552.138 500.681 548.134 504.645 542.217 506.485C535.152 508.682 528.305 507.877 521.095 507.705C517.47 507.619 514.132 506.802 510.718 505.659C509.524 505.259 508.401 504.007 507.112 504.666C506.289 505.087 506.065 506.232 505.929 507.141C504.166 518.738 506.399 527.803 515.027 536.119C517.227 538.242 519.676 539.577 522.641 540.649C526.193 541.936 528.389 543.193 532.904 543.252C554.112 543.521 576.801 542.963 598.354 542.326C587.468 555.304 576.953 570.366 568.053 584.314C565.037 589.046 563.649 591.111 561.589 596.081C563.808 598.184 567.5 613.929 575.545 605.703C583.588 597.477 615.259 562.152 624.681 552.08C627.544 549.021 628.316 548.174 628.944 549.195C629.002 548.988 629.006 548.68 629.006 548.197C635.793 540.177 638.699 530.884 643.896 522.748Z" fill="#332E66"/>
<path d="M672.066 596.319C664.386 579.048 655.753 554.867 649.236 536.95C646.752 530.114 646.341 528.999 643.898 523.25C643.907 523.078 643.9 522.913 643.896 522.747C638.699 530.883 635.792 540.178 629.006 548.196C629.006 548.679 629.002 548.987 628.943 549.194C629.621 550.293 630.128 553.559 632.887 558.655C638.21 568.484 653.888 593.548 659.034 607.664C659.526 609.008 660.456 609.488 661.718 609.316C665.468 608.805 669.148 608.891 672.557 607.004C673.981 606.738 675.27 606.157 676.771 606.086C674.567 601.275 674.723 602.293 672.066 596.319Z" fill="#222257"/>
<path d="M566.017 505.303L638.052 530.18C617.461 516.975 589.455 512.026 566.017 505.303Z" fill="#1B1B50"/>
<path d="M565.101 438.084C564.831 438.532 564.575 439.092 564.064 439.373C564.035 439.289 564.008 439.218 563.979 439.134C563.963 439.105 563.963 439.078 563.95 439.05C563.822 438.728 563.707 438.392 563.581 438.069C561.818 438.518 560.052 438.952 558.289 439.4C554.747 440.296 551.207 441.193 547.677 442.103C545.929 442.566 544.166 443.027 542.415 443.503C542.486 443.687 542.558 443.882 542.644 444.05C542.716 444.247 542.801 444.415 542.898 444.57C543.638 445.786 544.877 445.968 545.743 447.243C547.38 449.639 546.37 448.882 546.925 452.861C547.494 456.85 556.112 465.548 560.208 468.602C560.691 468.965 562.796 471.251 563.509 471.795C563.338 473.813 562.996 475.66 562.726 477.593C562.713 477.608 562.713 477.637 562.713 477.649C561.93 482.846 560.379 487.705 558.388 492.565L558.217 492.986C556.839 494.149 556.641 496.011 555.674 497.411C550.423 505.031 544.292 509.302 535.434 512.075C528.777 514.161 522.006 515.339 515.108 516.125C513.885 516.265 512.79 516.137 511.638 515.886C509.646 515.437 507.782 514.989 505.978 514.037C505.962 514.024 505.962 514.024 505.948 514.024C505.877 513.968 505.807 513.924 505.735 513.869C505.607 513.785 505.494 513.7 505.393 513.616C504.698 513.085 504.113 512.482 503.63 511.752C503.529 511.599 503.43 511.444 503.331 511.276C503.331 511.264 503.317 511.276 503.288 511.192C503.259 511.123 503.162 510.899 503.117 510.773C503.117 510.773 503.104 510.76 503.075 510.689C503.016 510.563 502.834 509.976 502.76 509.708C502.748 509.679 502.733 509.652 502.733 509.624C502.704 509.442 502.748 509.595 502.719 509.484C502.69 509.371 502.676 509.345 502.663 509.176C502.634 509.008 502.591 508.756 502.591 508.518C502.591 508.35 502.577 508.182 502.577 507.998V507.761C502.676 506.486 503.016 505.297 503.529 504.121C503.558 504.036 503.585 503.952 503.63 503.868V503.855C503.63 503.841 503.63 503.826 503.715 503.713C503.743 503.673 503.787 503.616 503.842 503.545C505.152 501.669 506.659 500.128 508.224 498.294C508.281 498.239 508.339 498.168 508.395 498.099C508.436 498.042 508.494 497.971 508.551 497.887C509.149 497.063 510.939 493.504 511.438 491.797C511.609 491.221 512.077 490.282 512.277 489.596C512.349 489.357 512.419 489.219 512.56 488.785C512.704 488.351 512.988 487.523 513.174 486.907C513.586 485.479 514.027 483.896 514.339 482.398C514.51 481.655 514.654 480.913 514.737 480.157C516.332 466.529 515.434 452.861 516.246 439.205C516.302 438.293 516.417 437.411 516.53 436.53C517 432.958 517.64 429.456 518.619 425.984C518.934 424.863 519.246 424.051 519.473 423.406C519.473 423.406 522.829 413.813 526.656 411.249C526.686 411.235 527.014 411.012 527.437 410.744C527.554 410.675 527.668 410.604 527.823 410.507C527.936 410.451 528.051 410.381 528.262 410.268C528.691 410.031 529.387 409.681 529.971 409.428C530.54 409.176 531.053 408.952 531.748 408.658C532.431 408.379 533.47 407.971 534.237 407.706C534.977 407.453 535.702 407.214 536.457 406.99C536.5 406.99 536.527 406.977 536.571 406.964C536.571 406.964 536.583 406.964 536.641 406.95C536.657 406.95 536.698 406.935 536.727 406.935C536.884 406.893 537.181 406.851 537.339 406.822C538.022 406.711 538.746 406.711 539.443 406.738C539.814 406.753 540.168 406.767 540.525 406.795C540.595 406.811 540.581 406.811 540.638 406.811H540.68H540.708C540.723 406.822 540.737 406.822 540.752 406.822H540.781H540.879C541.207 406.837 541.306 406.866 541.677 406.906C541.677 406.906 541.875 406.935 542.716 406.99C543.213 407.034 546.114 406.922 550.267 406.572C550.452 406.558 550.636 406.543 550.834 406.514C551.264 406.488 551.704 406.445 552.159 406.403C552.955 410.465 554.037 413.882 555.231 416.767C556.753 420.437 558.445 423.225 559.967 425.34C559.967 425.34 564.901 431.908 565.414 435.996C565.515 436.809 565.443 437.537 565.101 438.084Z" fill="#6293FA"/>
<g opacity="0.149994">
<g opacity="0.149994">
<path opacity="0.149994" d="M536.485 407.019C536.755 407.524 532.075 410.228 527.112 415.113C523.541 418.63 522.133 429.261 521.863 431.474C521.139 437.16 523.825 447.048 524.308 448.631C526.258 455.045 527.438 456.739 526.415 461.236C525.689 464.344 523.597 464.302 522.176 466.376C516.673 474.415 520.667 487.159 518.607 496.179C517.91 499.204 516.445 503.266 514.381 506.738C512.249 510.396 509.447 513.392 506.233 513.826C506.047 513.855 505.891 513.869 505.734 513.869C505.608 513.869 505.493 513.855 505.379 513.84C504.198 513.687 503.915 512.677 503.629 511.752C503.503 511.375 503.388 511.012 503.202 510.715C503.004 510.381 502.862 510.044 502.761 509.708C502.748 509.679 502.732 509.652 502.732 509.624C502.59 509.092 502.548 508.547 502.577 508V507.929C502.647 506.654 503.105 505.338 503.528 504.12C503.557 504.036 503.587 503.952 503.616 503.868C503.616 503.855 503.629 503.855 503.629 503.855C503.629 503.841 503.629 503.826 503.715 503.713C503.744 503.673 503.787 503.617 503.841 503.545C504.012 503.336 504.27 503.013 504.468 502.805C505.779 501.348 506.958 499.793 508.224 498.294C508.282 498.239 508.338 498.168 508.395 498.099C508.437 498.043 508.494 497.971 508.55 497.887C509.148 497.063 510.94 493.504 511.439 491.796C511.608 491.221 512.078 490.282 512.276 489.597C512.348 489.358 512.418 489.219 512.562 488.785C512.704 488.351 512.987 487.525 513.173 486.907C513.585 485.479 514.028 483.895 514.34 482.398C514.511 481.654 514.653 480.914 514.739 480.157C516.331 466.529 515.434 452.861 516.245 439.204C516.302 438.292 516.416 437.413 516.531 436.529C516.999 432.957 517.64 429.456 518.62 425.984C518.933 424.863 519.246 424.051 519.473 423.406C519.473 423.406 522.83 413.813 526.656 411.249C526.685 411.235 527.013 411.012 527.438 410.744C527.553 410.675 527.667 410.604 527.823 410.507C527.937 410.451 528.05 410.381 528.264 410.268C528.691 410.031 529.388 409.681 529.972 409.428C530.539 409.176 531.052 408.952 531.749 408.658C532.431 408.378 533.47 407.971 534.239 407.705C534.978 407.455 535.703 407.216 536.456 406.99C536.47 406.99 536.485 407.006 536.485 407.019Z" fill="#332E66"/>
</g>
</g>
<path d="M637.014 553.895C636.676 551.291 636.367 549.093 634.398 547.181C634.862 549.615 635.763 551.751 637.014 553.895Z" fill="#1B1B50"/>
<path d="M517.805 529.722C515.579 528.292 514.519 526.716 514.065 524.125C515.535 525.888 516.937 527.588 517.805 529.722Z" fill="#1B1B50"/>
<path d="M571.926 587.309C570.98 589.139 569.479 590.332 567.916 591.644C568.505 589.317 569.794 588.349 571.926 587.309Z" fill="#1B1B50"/>
<path d="M584.262 572.38C582.689 574.032 581.429 575.896 579.633 577.332C579.914 574.703 581.961 573.366 584.262 572.38Z" fill="#1B1B50"/>
<path d="M595.348 556.802C594.453 558.12 593.567 559.37 592.631 560.69C592.328 561.116 591.819 561.621 591.33 561.196C590.841 560.77 591.227 560.376 591.507 559.988C592.548 558.54 593.647 557.456 595.348 556.802Z" fill="#1B1B50"/>
<path d="M577.462 580.796C576.58 581.857 575.739 582.951 574.819 583.982C574.543 584.288 574.155 584.33 573.823 584.045C573.491 583.76 573.632 583.391 573.896 583.089C574.941 581.895 575.827 581.041 577.462 580.796Z" fill="#1B1B50"/>
<path d="M553.74 538.753C552.392 539.248 551.142 539.232 549.802 538.564C549.575 538.451 549.433 538.14 549.553 537.882C549.672 537.624 549.887 537.425 550.179 537.473C551.408 537.683 552.583 537.933 553.814 538.18C553.69 538.296 553.928 538.686 553.74 538.753Z" fill="#1B1B50"/>
<path d="M601.376 548.235C600.574 549.927 599.419 551.216 598.096 552.534C598.05 550.193 599.454 549.352 601.376 548.235Z" fill="#1B1B50"/>
<path d="M565.168 539.956C563.847 540.37 562.723 540.456 561.406 540.003C561.043 539.881 560.773 539.665 560.81 539.264C560.847 538.863 561.222 538.643 561.585 538.739C562.902 539.084 564.018 539.188 565.168 539.956Z" fill="#1B1B50"/>
<path d="M525.617 535.64C523.741 535.293 522.745 534.735 521.798 533.087C523.543 533.638 524.413 534.278 525.617 535.64Z" fill="#1B1B50"/>
<path d="M531.001 538.393C532.619 537.661 533.77 538.062 535.124 539.1C533.603 539.428 532.393 538.978 531.001 538.393Z" fill="#1B1B50"/>
<path d="M540.553 539.745C542.373 539.496 543.763 539.63 545.39 540.517C543.536 540.685 542.083 540.981 540.553 539.745Z" fill="#1B1B50"/>
<path d="M639.333 559.124C640.695 560.575 640.893 562.091 641.186 563.98C639.844 562.495 639.401 561.091 639.333 559.124Z" fill="#1B1B50"/>
<path d="M605.459 542.125C604.717 543.486 603.941 544.664 602.711 545.643C602.742 543.628 603.785 543.159 605.459 542.125Z" fill="#1B1B50"/>
<path d="M589.479 564.722C589.486 564.867 589.432 565.395 589.389 565.479C588.849 566.571 588.646 567.489 587.469 567.984C587.385 568.02 587.106 567.77 587.133 567.684C587.548 566.341 588.343 565.51 589.479 564.722Z" fill="#1B1B50"/>
<path d="M583.39 539.048C582.188 538.901 581.141 538.962 580.149 538.184C581.76 537.678 582.217 537.856 583.39 539.048Z" fill="#1B1B50"/>
<path d="M570.68 538.69C572.263 538.059 573.331 538.294 574.807 539.058C573.275 539.408 572.113 539.351 570.68 538.69Z" fill="#1B1B50"/>
<path d="M605.671 537.834C604.477 537.998 603.508 538.157 602.463 537.454C603.933 536.785 604.399 536.848 605.671 537.834Z" fill="#1B1B50"/>
<path d="M592.979 538.169C594.139 537.654 595.148 537.767 596.343 538.117C595.158 538.529 594.172 538.569 592.979 538.169Z" fill="#1B1B50"/>
<path d="M660.889 598.069C662.66 599.333 662.941 600.889 663.363 602.895C661.84 601.36 661.12 600.212 660.889 598.069Z" fill="#1B1B50"/>
<path d="M657.571 592.222C656.291 590.71 655.444 589.033 654.652 587.237C656.881 588.207 657.211 589.995 657.571 592.222Z" fill="#1B1B50"/>
<path d="M648.675 577.855C651.145 579.213 651.696 580.367 652.096 583.102C650.957 581.352 649.815 579.603 648.675 577.855Z" fill="#1B1B50"/>
<path d="M564.284 379.739C564.235 380.653 564.126 381.202 563.994 382.074C563.639 384.42 563.798 387.9 563.521 390.046C562.658 396.734 558.668 400.268 552.083 400.603C551.642 400.626 551.238 400.423 550.825 400.417C550.759 403.048 550.899 406.89 550.79 409.286C550.611 413.198 548.322 414.988 544.797 414.972C542.599 414.963 540.902 413.697 539.073 412.819C538.869 412.72 538.696 412.546 538.63 412.431C538.566 412.315 538.774 412.267 538.799 412.129C539.853 406.027 539.853 400.784 537.624 394.914C537.21 396.195 536.861 397.405 536.5 398.765C536.478 398.09 536.511 399.22 536.476 398.121C536.438 397.019 536.362 393.692 536.377 392.164C531.257 387.982 528.616 383.405 528.511 376.836C528.511 376.823 528.49 376.808 528.482 376.794C523.245 366.65 538.95 360.499 548.007 361.092C556.089 361.619 562.876 368.249 564.171 376.605C564.332 377.641 564.33 378.825 564.284 379.739Z" fill="#CA795A"/>
<path d="M550.829 400.399C548.841 397.454 546.845 394.515 544.85 391.573C542.807 397.485 545.744 401.583 550.82 404.499C550.822 403.132 550.825 401.766 550.829 400.399Z" fill="#B86A4E"/>
<path d="M569.609 371.973C568.842 374.399 566.447 375.986 564.296 376.573C559.773 377.807 555.903 377.73 551.437 377.327C551.08 379.608 550.736 381.914 550.483 384.234C549.058 384.283 548.14 384.648 546.594 384.624C545.05 384.597 542.914 384.069 541.227 384.042C540.13 386.968 538.52 392.18 537.716 394.634C536.912 397.083 537.065 396.823 536.487 398.777C536.496 398.504 536.5 398.563 536.477 398.334C536.457 398.106 536.492 397.925 536.444 397.645C535.834 394.291 535.201 392.616 532.766 389.71C528.517 384.643 525.948 378.619 526.618 371.365C527.107 366.072 532.354 359.798 537.182 358.182C552.59 353.017 562.731 358.148 569.609 371.973Z" fill="#390B36"/>
<path d="M543.561 378.298C546.031 377.122 548.842 378.197 550.062 380.57C551.281 382.945 550.604 385.689 548.124 386.884C545.64 388.081 542.829 386.941 541.555 384.593C540.281 382.245 541.091 379.474 543.561 378.298Z" fill="#CA795A"/>
<path d="M539.713 355.564C539.839 362.312 534.682 367.576 527.858 367.834C521.034 368.091 515.63 363.23 515.5 356.476C515.372 349.721 520.568 344.462 527.392 344.204C534.218 343.946 539.587 348.816 539.713 355.564Z" fill="#390B36"/>
<path d="M538.789 412.126C538.764 412.262 538.632 412.35 538.601 412.413C538.57 412.476 538.597 412.428 538.584 412.438C538.562 412.453 538.547 412.411 538.535 412.394C538.151 411.788 537.688 411.591 537.292 410.9C536.896 410.212 536.591 409.315 536.669 408.327C536.879 405.69 536.44 401.194 536.558 398.955C536.673 396.716 537.339 396.678 537.617 394.876C539.859 400.823 539.859 406.013 538.789 412.126Z" fill="#B86A4E"/>
<g opacity="0.509995">
<g opacity="0.509995">
<path opacity="0.509995" d="M536.444 397.641C535.809 394.348 535.236 392.538 532.762 389.721C528.445 384.809 526.092 378.301 526.544 371.515C527.678 371.532 527.981 372.148 527.993 373.284C528.006 374.418 527.568 375.875 528.507 376.818C528.507 376.818 528.504 376.82 528.507 376.835C529.381 379.913 530.851 382.493 532.68 385.141C534.187 387.327 535.283 389.706 536.378 392.125C536.789 393.037 537.193 393.947 537.603 394.859C537.609 394.872 537.626 394.895 537.622 394.912C537.374 396.217 536.951 397.475 536.5 398.731C536.483 398.551 536.506 398.547 536.481 398.331C536.452 398.117 536.496 397.918 536.444 397.641Z" fill="#240024"/>
</g>
</g>
<path d="M536.023 387.539C536.764 388.577 537.19 389.411 536.984 390.749C536.782 392.088 536.512 393.535 535.799 394.753C535.409 396.107 534.605 397.251 534.304 398.631C536.254 396.314 537.582 392.981 537.9 390.032C537.924 389.822 537.947 389.65 537.879 389.472C537.506 388.499 537.166 387.675 536.023 387.539Z" fill="#390B36"/>
<path d="M541.492 354.392C540.731 354.563 540.336 353.857 539.709 353.742C538.929 353.599 538.381 354.144 537.81 354.71C534.534 357.957 531.26 361.33 527.693 364.309C527.635 364.355 527.536 364.362 527.524 364.429C527.26 365.932 526.136 366.24 524.819 366.741C525.588 366.804 526.017 367.034 526.324 367.753C528.336 369.761 528.92 369.697 530.914 367.653C531.262 367.298 531.682 366.831 532.062 366.405C534.146 364.058 536.328 361.89 538.93 360.062C539.618 359.578 540.206 358.934 540.82 358.351C542.117 357.117 542.323 355.987 541.492 354.392Z" fill="#240024"/>
<path d="M562.549 393.948C561.545 393.412 560.954 392.762 561.962 391.892C562.972 391.022 562.824 389.993 562.415 388.974C562.005 387.955 561.692 387.536 561.385 386.563C561.081 385.588 561.015 384.873 561.888 384.129C562.762 383.383 562.718 382.027 562.751 381.077C562.788 380.125 562.943 379.903 563.786 379.725C564.011 380.35 564.153 381.016 564.013 381.66C563.421 384.393 563.861 387.07 564.799 389.508C565.739 391.944 564.108 392.592 562.549 393.948Z" fill="#CA795A"/>
<g opacity="0.509995">
<g opacity="0.509995">
<path opacity="0.509995" d="M554.958 361.771C553.362 361.184 552.297 359.964 551.045 358.96C549.794 357.958 548.237 358.161 546.946 357.293C550.859 355.471 553.092 358.735 554.958 361.771Z" fill="#240024"/>
</g>
</g>
<g opacity="0.509995">
<g opacity="0.509995">
<path opacity="0.509995" d="M531.272 378.874C529.305 377.086 528.323 375.197 528.266 372.558C528.253 371.967 528.354 371.377 529.08 371.325C529.806 371.273 529.717 371.962 529.666 372.491C529.546 373.74 530.107 374.885 530.511 375.958C530.917 377.031 531.321 377.752 531.272 378.874Z" fill="#240024"/>
</g>
</g>
<g opacity="0.509995">
<g opacity="0.509995">
<path opacity="0.509995" d="M544.418 363.747C544.746 365.491 544.4 366.489 542.715 367.346C541.027 368.202 539.853 367.336 538.552 366.12C541.134 366.416 542.818 365.793 544.418 363.747Z" fill="#240024"/>
</g>
</g>
<g opacity="0.509995">
<g opacity="0.509995">
<path opacity="0.509995" d="M523.799 347.634C522.869 348.501 522.096 349.638 521.593 350.801C520.675 352.923 520.787 354.683 522.222 356.547C523.655 358.413 525.688 358.872 527.982 358.759C528.692 358.725 529.207 358.224 529.681 357.792C531.353 356.272 531.996 354.044 531.848 352.05C531.7 350.057 530.943 349.258 529.215 349.049C527.485 348.843 525.702 350.357 525.228 351.591C524.756 352.826 525.719 353.147 526.343 353.562C526.962 353.977 527.422 354.117 527.087 354.744C526.753 355.369 526.086 355.268 525.554 355.017C523.595 354.092 522.657 352.315 523.898 350.273C525.135 348.231 527.704 346.898 530.186 347.476C532.667 348.049 533.394 350.285 533.502 352.637C533.545 353.53 533.438 354.702 532.97 355.635C531.875 357.811 530.834 359.878 527.993 360.222C525.152 360.566 522.372 359.371 520.822 356.876C519.271 354.379 519.247 352.371 520.694 349.749C521.337 348.587 522.121 347.29 523.799 347.634Z" fill="#240024"/>
</g>
</g>
<path d="M564.049 439.382C562.318 440.627 559.093 441.315 557.26 441.68C553.068 442.516 545.836 441.579 542.84 444.614C542.725 444.239 542.556 443.881 542.422 443.51C549.448 441.594 556.52 439.858 563.581 438.063C563.734 438.504 563.932 438.929 564.049 439.382Z" fill="#696CDA"/>
<path d="M656.196 472.434C648.182 473.017 640.292 473.086 632.272 473.748C610.246 475.558 588.021 477.427 565.979 477.878C564.513 477.907 564.062 478.161 562.67 477.578C561.278 476.998 560.905 476.488 559.668 474.813C554.74 468.135 549.928 460.405 546.236 452.635C545.011 450.056 543.97 447.249 542.838 444.62C545.836 441.575 553.068 442.516 557.26 441.681C559.093 441.315 562.319 440.627 564.049 439.382C566.758 446.536 569.199 453.752 571.445 461.06C588.691 463.139 605.904 464.548 623.285 465.353C626.431 464.189 630.404 462.974 633.656 463.091C642.799 463.418 649.63 466.476 656.196 472.434Z" fill="#CA795A"/>
<g opacity="0.300003">
<g opacity="0.300003">
<path opacity="0.300003" d="M531.64 422.169C530.574 430.674 533.905 437.34 539.93 443.208L531.64 422.169Z" fill="#332E66"/>
</g>
</g>
<path d="M537.079 387.481C537.269 388.726 537.263 389.634 536.45 390.712C535.634 391.795 534.7 392.942 533.49 393.684C532.5 394.695 531.244 395.33 530.319 396.411C533.145 395.252 535.931 392.948 537.623 390.485C537.743 390.311 537.846 390.175 537.865 389.986C537.984 388.953 538.05 388.093 537.079 387.481Z" fill="#390B36"/>
<path d="M540.274 359.957C540.88 358.41 541.49 357.359 543.102 356.538C544.715 355.718 546.519 354.875 548.374 354.649C550.149 353.999 551.992 353.923 553.731 353.163C549.753 353.007 545.127 354.232 541.64 356.185C541.395 356.322 541.187 356.431 541.041 356.636C540.247 357.745 539.581 358.712 540.274 359.957Z" fill="#390B36"/>
<path d="M564.532 567.129C547.122 567.109 525.756 566.978 508.341 566.639C501.449 566.505 497.746 561.316 497.855 554.885C497.333 554.531 497.855 554.885 497.855 554.885C497.964 548.451 501.948 543.167 508.894 543.162C526.445 543.148 548.071 543.074 565.583 543.634C572.513 543.854 575.717 549.101 575.479 555.503C575.991 555.682 575.479 555.503 575.479 555.503C575.242 561.905 571.422 567.134 564.532 567.129Z" fill="#EFF4FC"/>
<path d="M714.737 419.887H685.652C684.386 420.799 683.714 422.225 683.444 423.686C680.701 438.251 676.959 452.636 675.081 467.37C674.982 468.113 674.939 468.842 674.982 469.542C675.024 470.815 675.308 471.978 675.935 472.988H709.673C715.163 472.523 719.941 472.118 722.629 471.923C723.398 471.139 724.109 470.355 724.748 469.542C731.29 461.559 732.371 452.592 726.911 443.462C722.338 435.794 717.192 428.518 714.737 419.887Z" fill="#EFF4FC"/>
<path d="M714.036 419.887C713.937 425.616 715.642 430.7 719.56 435.486C724.856 441.955 729.031 449.003 728.475 458.09C728.136 463.622 723.093 466.742 722.629 471.928C729.728 473.253 733.575 470.953 734.367 463.297L741.954 419.887H714.036Z" fill="#E8EEF5"/>
<path d="M728.717 471.151V471.375C728.717 471.587 728.674 471.782 728.603 471.979C728.36 472.566 727.764 472.987 727.08 472.987H639.51C638.613 472.987 637.873 472.258 637.873 471.375V471.151C637.873 470.27 638.613 469.541 639.51 469.541H727.08C727.977 469.541 728.717 470.27 728.717 471.151Z" fill="#EFF4FC"/>
<path d="M717.428 444.386C717.428 447.842 714.584 450.641 711.075 450.641C707.566 450.641 704.721 447.842 704.721 444.386C704.721 440.931 707.566 438.132 711.075 438.132C714.584 438.132 717.428 440.931 717.428 444.386Z" fill="#DCDDF9"/>
<g opacity="0.270004">
<g opacity="0.270004">
<path opacity="0.270004" d="M856.312 455.435C854.444 455.917 852.627 456.357 850.852 456.768C850.772 456.755 850.71 456.741 850.632 456.741C850.446 456.43 850.256 456.116 850.052 455.803C850.46 455.506 850.382 454.91 850.178 453.548C849.801 450.907 849.535 448.251 849.112 445.611C848.232 440.203 848.813 434.754 848.343 429.331C848.139 426.973 847.809 424.617 847.685 422.246C847.621 421.066 846.601 420.33 846.366 419.265C846.852 418.598 847.355 417.959 848.39 418.114C849.551 418.271 850.728 418.456 851.889 418.598C852.5 418.668 852.955 418.854 853.316 419.139C854.256 427.512 855.262 439.222 856.312 455.435Z" fill="#3F36AA"/>
</g>
</g>
<path d="M786.624 412.901C795.896 411.624 804.873 409.497 813.907 407.268C814.443 403.273 814.66 399.921 812.237 396.393C805.586 396.37 799.085 395.129 792.416 395.395C787.307 394.391 782.459 394.061 777.359 395.401C773.639 396.376 772.31 399.638 770.724 402.539C769.934 403.979 769.683 405.612 768.908 407.073C769.627 410.018 770.369 412.888 774.076 413.574C778.363 414.366 782.46 414.138 786.624 412.901Z" fill="#D98371"/>
<path d="M768.906 407.06C771.376 405.291 771.472 402.511 773.083 400.258C775.299 397.166 777.513 395.455 781.748 395.505C785.214 395.547 788.911 395.577 792.415 395.4C793.467 390.189 794.508 384.948 795.556 379.73C795.593 379.546 795.739 379.359 795.772 379.196C796.158 377.183 796.296 375.917 795.698 375.171C794.706 373.938 792.24 374.192 791.57 374.261C788.311 374.601 782.167 374.2 769.93 371.702C767.916 378.064 766.011 387.277 767.231 398.138C767.596 401.39 768.196 404.375 768.906 407.06Z" fill="#EB917E"/>
<path d="M777.083 619.256C775.79 624.545 774.495 629.834 773.202 635.125C769.163 634.576 765.126 634.029 761.086 633.478L765.034 617.827L777.083 619.256Z" fill="#D98371"/>
<path d="M842.625 616.697C842.582 622.082 842.543 627.467 842.516 632.85C838.43 633.075 834.343 633.305 830.255 633.532C830.313 628.212 830.383 622.895 830.467 617.577C834.519 617.286 838.574 616.998 842.625 616.697Z" fill="#D98371"/>
<path d="M774.736 632.538C774.281 631.943 773.862 631.49 772.91 632.05C771.04 633.146 768.621 633.657 766.316 633.446C764.015 633.232 762.259 632.123 761.395 630.479C760.941 629.612 760.624 629.471 759.789 629.762C753.092 632.083 745.845 634.781 739.306 637.173C737.716 637.754 736.968 638.513 736.477 639.642C736.318 639.659 736.477 639.642 736.477 639.642C735.986 640.77 736.493 641.831 738.128 641.844C749.441 641.944 761.578 642.083 772.924 642.024C774.708 642.015 775.25 641.278 775.376 639.705C775.505 638.131 775.108 635.496 775.134 633.712C775.136 633.593 775.136 633.546 775.056 633.381C774.976 633.219 774.883 632.733 774.736 632.538Z" fill="#332E66"/>
<path d="M829.062 631.164C829.526 630.573 829.953 630.127 830.901 630.693C832.759 631.806 835.179 632.338 837.488 632.15C839.793 631.963 841.571 630.877 842.466 629.244C842.938 628.383 843.259 628.25 844.09 628.546C850.774 630.932 858.001 633.697 864.524 636.154C866.108 636.753 866.852 637.52 867.33 638.654C867.489 638.673 867.33 638.654 867.33 638.654C867.808 639.788 867.287 640.843 865.646 640.839C854.3 640.816 842.123 640.824 830.742 640.644C828.951 640.616 828.419 639.879 828.31 638.304C828.204 636.73 828.633 634.11 828.644 632.33C828.646 632.212 828.646 632.162 828.728 632.001C828.807 631.841 828.91 631.355 829.062 631.164Z" fill="#332E66"/>
<path d="M835.568 455.389C835.648 455.152 835.726 454.914 835.805 454.679C830.865 455.326 824.04 455.708 816.059 454.586C807.715 453.415 801.025 451.01 796.37 448.929C790.143 478.778 783.67 508.899 776.95 539.283C770.625 567.856 764.196 596.128 757.675 624.091C764.974 624.022 772.274 623.953 779.573 623.884C794.525 578.79 809.359 533.663 824.455 488.607C826.735 533.361 828.333 578.14 830.026 622.915C837.77 623.003 845.515 623.085 853.259 623.181C854.96 566.998 856.63 510.824 857.529 454.626C850.208 454.88 842.889 455.134 835.568 455.389Z" fill="#332E66"/>
<path d="M873.516 382.495C873.5 382.524 873.487 382.551 873.475 382.579C873.304 382.985 873.133 383.14 872.932 383.237C872.776 383.335 872.592 383.405 872.363 383.56C871.823 383.924 871.139 383.532 870.514 383.602C870.415 383.616 870.131 383.602 869.945 383.616C864.341 384.078 858.554 385.044 852.963 384.989C851.227 384.973 850.175 385.142 849.62 385.646C849.095 386.123 848.996 386.864 849.165 388.029C849.208 388.364 849.282 388.729 849.363 389.121C850.303 393.419 850.744 398.196 852.196 402.565C852.394 403.154 852.723 404.106 852.878 404.806C852.878 404.822 852.894 404.835 852.894 404.848C852.907 404.919 852.923 404.99 852.963 405.143V405.17C854.173 410.325 854.812 415.493 855.453 420.87C855.496 421.22 855.538 421.683 855.608 422.343C855.608 422.369 855.624 422.412 855.624 422.44C856.847 433.77 857.558 445.493 858.439 456.951C857.344 457.159 858.68 456.962 857.542 457.175C857.531 457.175 857.515 457.175 857.486 457.188C851.387 458.379 806.41 467.202 796.539 454.121C796.17 453.63 795.857 453.14 795.588 452.649C793.24 448.492 793.865 443.87 796.413 438.068C796.454 437.973 796.498 437.86 796.539 437.76C799.953 430.114 802.102 419.847 799.755 410.885C799.741 410.828 799.712 410.703 799.685 410.633C799.669 410.619 799.669 410.591 799.669 410.577C799.242 409.373 798.759 408.21 798.219 407.118C796.1 402.734 793.141 399.106 789.343 395.507C789.329 395.492 789.329 395.492 789.315 395.479C788.591 394.806 788.746 395.647 788.335 394.75C788.306 394.708 788.29 394.666 788.277 394.624C788.22 394.511 788.164 394.387 788.108 394.232C787.395 392.551 787.339 387.677 786.84 385.002V384.973C786.3 382.314 781.278 378.797 781.278 378.797L769.586 372.986C769.586 372.986 769.687 372.579 769.887 371.852C769.901 371.81 769.914 371.753 769.928 371.697C771.223 367.076 776.13 351.222 784.096 344.946C788.717 341.303 801.091 335.898 808.843 334.358C809.598 334.217 811.249 333.699 812.171 333.601C812.243 333.588 812.313 333.588 812.371 333.588C812.585 333.588 812.855 333.406 812.983 333.504C813.338 333.812 813.509 334.343 813.95 334.638C819.595 338.42 826.467 336.724 832.539 334.89H832.553C832.582 334.877 832.611 334.861 832.638 334.861C832.667 334.848 832.696 334.848 832.724 334.835C832.865 334.792 832.995 334.75 833.137 334.708C833.493 334.596 833.663 334.527 833.792 334.485C833.805 334.469 833.805 334.469 833.821 334.469H833.832C833.933 334.427 834.019 334.401 834.174 334.358C834.219 334.343 834.246 334.343 834.26 334.343L834.275 334.33C834.316 334.33 834.275 334.33 834.345 334.316C834.417 334.316 834.487 334.343 834.559 334.372C834.97 334.456 835.368 334.553 835.768 334.651C840.462 335.787 844.514 337.733 848.596 340.17C849.379 340.648 850.076 341.122 850.829 341.627C851.101 341.795 851.358 341.978 851.627 342.158C852.325 342.634 853.02 343.126 853.69 343.631C853.732 343.644 853.746 343.671 853.76 343.686C854.571 344.288 855.367 344.919 856.136 345.548C856.888 346.164 857.571 346.753 858.311 347.411C858.509 347.594 858.68 347.734 858.923 347.958C864.143 352.859 868.879 357.874 871.638 364.274C874.085 369.906 875.864 376.85 873.516 382.495Z" fill="#6293FA"/>
<g opacity="0.270004">
<g opacity="0.270004">
<path opacity="0.270004" d="M874.739 387.636C874.384 387.649 874.028 387.649 873.858 387.649C873.516 387.649 873.417 387.749 873.217 387.636C873.003 387.523 873.089 386.823 873.089 386.655C873.046 385.605 873.003 384.456 872.931 383.238C872.92 383.014 872.906 382.789 872.891 382.565C872.362 373.995 870.7 362.466 864.356 358.644C859.051 355.422 860.346 356.655 856.363 352.678C854.216 350.534 855.552 349.54 853.818 347.243C849.394 341.402 840.86 338.476 834.502 335.744C834.417 335.702 834.331 335.675 834.259 335.633C833.137 335.157 833.549 335.38 832.853 335.044C832.739 334.988 832.653 334.946 832.611 334.918C832.653 334.933 832.71 334.946 832.723 334.946L832.71 334.918C832.696 334.904 832.683 334.891 832.667 334.891C832.683 334.891 832.696 334.876 832.723 334.833C832.723 334.82 832.739 334.82 832.739 334.807C832.809 334.623 833.508 334.484 833.663 334.497C833.805 334.497 833.749 334.47 833.791 334.484C833.805 334.47 833.805 334.47 833.82 334.47H833.834C833.919 334.47 833.962 334.455 834.048 334.47C834.147 334.484 834.259 334.484 834.36 334.497C834.828 334.554 835.298 334.596 835.768 334.652C840.462 335.786 844.516 337.732 848.596 340.17C849.379 340.646 850.076 341.123 850.829 341.627C851.101 341.796 851.357 341.977 851.627 342.159C852.324 342.635 853.02 343.127 853.689 343.629C853.732 343.645 853.746 343.671 853.759 343.687C854.571 344.289 855.367 344.918 856.136 345.549C856.89 346.165 857.571 346.754 858.311 347.412C858.511 347.593 858.68 347.733 858.923 347.959C864.142 352.859 868.879 357.873 871.638 364.273C874.085 369.904 875.864 376.851 873.516 382.496C873.5 382.523 873.487 382.551 873.475 382.578H873.5C873.615 382.578 874.129 384.624 874.739 387.636Z" fill="#3177CA"/>
</g>
</g>
<g opacity="0.270004">
<g opacity="0.270004">
<path opacity="0.270004" d="M849.611 385.489C849.731 386.958 850.292 387.935 848.304 388.312C846.088 384.811 845.342 380.891 843.909 377.124C843.191 375.233 842.568 373.303 841.812 371.464C841.36 370.355 841.498 369.473 842.674 369.097C843.847 368.718 844.23 369.643 844.484 370.36C845.243 372.51 846.181 374.456 846.754 376.619C847.552 379.625 848.383 382.594 849.611 385.489Z" fill="#3F36AA"/>
</g>
</g>
<path d="M844.76 437.81C828.361 438.052 810.993 438.127 794.447 438.075C792.287 438.068 791.041 437.289 790.064 435.372C782.223 419.969 773.952 403.416 766.381 388.044C765.437 386.132 765.888 385.317 768.024 385.279C784.395 384.986 801.715 384.743 818.238 384.793C820.396 384.801 821.656 385.598 822.636 387.522C830.522 402.982 838.826 419.61 846.411 435.05C847.354 436.972 846.902 437.777 844.76 437.81Z" fill="#332E66"/>
<path d="M834.305 334.392C834.831 335.165 834.049 336.337 832.936 336.654C826.994 338.347 821.739 338.614 815.778 337.201C815.238 337.073 814.558 336.174 814.454 336.092C812.978 334.933 807.793 328.505 809.131 327.18C811.213 325.12 813.902 328.501 816.741 327.059C818.677 326.074 820.532 323.715 821.009 321.367C821.273 320.074 821.042 319.994 821.235 318.181C821.423 316.368 822.901 313.053 824.544 311.276C824.796 313.879 824.474 314.024 825.336 317.424C825.664 318.713 827.431 323.258 829.12 326.03C829.854 327.233 832.911 332.35 834.305 334.392Z" fill="#EB917E"/>
<path d="M825.776 312.828C825.504 313.606 824.933 314.029 824.432 314.344C823.931 314.66 823.644 314.402 823.325 314.62C821.977 315.541 821.83 317.226 822.043 318.532C822.684 322.448 820.403 325.663 817.393 327.552C814.379 329.439 813.183 329.814 809.957 330.558C808.452 330.904 806.806 330.013 805.681 329.036C805.573 328.94 805.408 328.77 805.305 328.663C801.844 325.033 798.37 320.043 796.561 315.851C794.753 311.658 793.803 308.675 792.865 304.6C795.661 301.137 811.074 290.653 815.099 293.395C820.766 297.254 814.635 302.942 819.63 306.132C821.68 307.44 822.772 305.973 824.649 305.663C826.092 307.992 826.669 310.247 825.776 312.828Z" fill="#F29883"/>
<path d="M829.739 316.625C829.063 314.612 828.459 312.076 828.271 309.788C828.164 308.505 827.787 307.214 827.117 306.061C827.457 299.904 827.669 290.073 817.863 290.907C807.92 282.411 797.469 287.987 791.215 295.944C787.785 300.309 786.913 299.508 782.742 301.531C794.09 307.596 803.885 304.977 813.346 297.135C813.394 301.797 814.198 306.866 819.583 308.864C821.321 308.304 823.061 307.743 824.799 307.185C825.129 309.644 824.894 311.447 822.985 313.331C823.057 314.3 823.442 315.513 824.069 316.243C825.244 317.608 827.993 319.543 829.78 318.312C830.405 317.882 830.003 317.409 829.739 316.625Z" fill="#332E66"/>
<path d="M822.059 316.445C821.96 316.671 821.96 316.568 821.915 317.009C821.871 317.453 821.909 317.845 822.051 318.656C822.676 322.23 820.406 325.754 817.393 327.564C814.377 329.375 813.185 329.853 809.955 330.559C808.45 330.888 806.81 330.027 805.681 329.033C805.571 328.935 805.407 328.781 805.326 328.672C806.425 328.186 808.101 327.404 809.064 326.909C811.276 325.769 813.594 324.507 815.321 323.163C818.078 321.019 819.305 319.107 819.76 315.986C819.863 315.283 820.057 314.52 820.199 313.915C820.34 313.311 820.705 312.873 820.979 312.491C822.298 310.655 823.496 308.961 824.805 307.19C824.956 307.533 825.193 308.246 825.185 308.552C825.104 311.627 823.263 313.717 822.059 316.445Z" fill="#D98371"/>
<path d="M857.435 422.598C848.157 421.436 839.164 419.458 830.117 417.326C829.56 413.332 829.332 409.986 831.729 406.442C838.401 406.345 844.904 405.003 851.592 405.115C856.682 404.008 861.54 403.609 866.663 404.886C870.401 405.821 871.727 409.089 873.319 411.982C874.11 413.418 874.368 415.064 875.145 416.521C874.442 419.491 873.696 422.388 869.989 423.12C865.703 423.967 861.618 423.791 857.435 422.598Z" fill="#D98371"/>
<path d="M876.802 407.51C876.56 410.577 875.977 413.531 875.152 416.501L875.138 416.486C872.662 414.736 872.561 411.963 870.955 409.722C868.738 406.627 866.503 404.961 862.279 405.059C859.265 405.129 856.023 405.254 852.964 405.143C852.508 405.129 852.04 405.129 851.599 405.129V405.114C850.517 399.892 849.436 394.695 848.343 389.469C848.298 389.289 848.172 389.121 848.127 388.924C848.1 388.713 847.913 388.266 847.913 388.084C847.929 387.916 847.9 387.748 847.873 387.593C847.702 386.612 847.061 385.66 847.985 384.736C848.311 384.4 848.653 384.189 849.038 384.063C849.892 383.755 850.931 383.868 852.467 383.881C857.685 383.895 864.312 382.971 869.903 382.608C870.827 382.551 871.909 382.551 872.89 382.566C873.09 382.566 873.288 382.579 873.474 382.579H873.501C873.614 382.579 874.128 384.623 874.74 387.635C875.849 393.182 877.23 402.034 876.802 407.51Z" fill="#EB917E"/>
<g opacity="0.270004">
<g opacity="0.270004">
<path opacity="0.270004" d="M789.201 382.661C788.677 384.042 788.762 385.161 786.801 384.669C786.308 380.571 787.321 376.713 787.651 372.703C787.818 370.689 788.084 368.683 788.195 366.7C788.265 365.509 788.77 364.767 789.995 364.918C791.222 365.069 791.17 366.066 791.09 366.821C790.85 369.083 790.859 371.24 790.446 373.435C789.869 376.491 789.341 379.527 789.201 382.661Z" fill="#3F36AA"/>
</g>
</g>
<path d="M831.728 406.442C831.728 406.442 796.396 402.359 799.692 410.639C802.985 418.917 830.116 417.326 830.116 417.326L831.728 406.442Z" fill="#D98371"/>
<path d="M774.87 410.578C774.87 410.578 802.474 409.494 803.2 403.26C803.27 402.668 803.074 402.224 802.818 401.637C800.297 395.918 789.902 393.044 781.748 395.505C779.181 396.279 774.465 397.704 773.07 401.947C771.727 406.041 774.404 409.922 774.87 410.578Z" fill="#D98371"/>
<path d="M937.538 589.21C943.568 562.004 965.899 544.731 990.611 544.659C995.571 544.643 1000.89 545.498 1002.98 550.275C1004.91 554.661 1000.99 558.227 998.233 561.365C991.489 569.039 982.255 572.758 972.857 576.07C960.945 580.267 940.581 589.088 937.538 589.21Z" fill="#278A2A"/>
<path d="M929.873 585.255C924.23 557.967 902.148 540.388 877.438 539.975C872.48 539.893 867.148 540.673 864.986 545.419C863 549.779 866.868 553.4 869.581 556.576C876.212 564.342 885.393 568.187 894.743 571.629C906.596 575.989 926.832 585.089 929.873 585.255Z" fill="#278A2A"/>
<path d="M922.233 561.392C910.831 529.517 901.962 496.658 901.69 460.732C901.673 458.331 901.949 455.9 902.246 453.518C902.801 449.08 904.945 447.711 908.056 448.636C912.568 449.98 916.289 453.248 919.549 457.463C934.389 476.643 941.042 501.039 944.376 527.432C946.365 543.169 945.104 558.652 941.452 573.8C941.057 575.437 940.294 576.915 939.7 578.466C936.721 575.858 936.383 571.393 935.7 567.433C931.838 545.047 930.75 537.683 934.925 564.861C935.785 570.466 925.222 569.748 922.233 561.392Z" fill="#5AAC50"/>
<path d="M940.755 565.295C946.355 538.001 968.41 520.39 993.118 519.937C998.078 519.847 1003.41 520.619 1005.58 525.361C1007.57 529.721 1003.71 533.347 1001 536.526C994.381 544.301 985.209 548.16 975.863 551.617C964.018 555.996 943.795 565.125 940.755 565.295Z" fill="#5AAC50"/>
<path d="M934.413 538.904C935.811 524.113 932.988 510.457 931.774 496.366C931.248 490.245 931.992 483.927 934.973 477.472C938.796 469.194 943.014 467.756 949.367 472.189C953.315 474.946 955.158 478.95 956.541 483.251C962.696 502.397 957.55 521.341 938.907 539.981C936.959 538.575 938.452 536.592 939.404 534.793C944.066 525.987 946.525 517.136 947.787 508.248C946.402 516.977 944.276 525.689 939.507 534.321C938.404 536.315 937.709 538.753 934.413 538.904Z" fill="#278A2A"/>
<path d="M907.563 517.683C902.627 514.05 897.294 511.042 892.379 507.377C889.721 505.396 885.298 503.709 886.894 498.954C888.439 494.351 893.022 494.915 896.393 495.11C912.215 496.032 922.967 504.841 928.391 523.502C931.038 532.613 932.04 542.279 930.597 552.324C927.608 547.559 914.13 522.519 907.563 517.683Z" fill="#278A2A"/>
<path d="M975.38 487.175C967.049 491.158 962.398 493.38 957.641 498.47C946.595 510.289 945.203 526.598 944.061 539.964C943.434 547.312 943.168 558.097 945.273 571.163C953.852 565.583 959.658 559.753 963.297 555.567C963.297 555.567 980.624 535.629 982.405 486.043C982.411 485.922 981.856 484.079 975.38 487.175Z" fill="#278A2A"/>
<path d="M926.337 566.298C930.016 538.688 914.942 514.991 891.715 506.682C887.055 505.017 881.754 504.043 878.142 507.841C874.825 511.329 877.281 515.989 878.8 519.865C882.507 529.332 889.915 535.906 897.62 542.157C907.384 550.079 923.515 565.166 926.337 566.298Z" fill="#5AAC50"/>
<path d="M909.158 563.775C914.057 566.745 918.333 570.638 922.069 574.94C925.764 579.277 928.957 584.073 931.116 589.325C927.627 584.834 924.252 580.401 920.587 576.173C916.964 571.913 913.082 567.903 909.158 563.775Z" fill="#09660E"/>
<path d="M915.232 535.81C917.511 540.999 919.589 546.256 921.64 551.526C923.694 556.792 925.673 562.077 927.496 567.45C929.256 572.837 930.848 578.33 931.613 583.988C931.988 586.813 932.252 589.656 932.215 592.505C932.13 595.351 931.887 598.19 931.271 600.953C931.671 595.314 931.25 589.708 930.139 584.229C929.048 578.751 927.436 573.376 925.653 568.045C923.892 562.706 921.958 557.392 920.236 552.011C918.48 546.64 916.754 541.261 915.232 535.81Z" fill="#09660E"/>
<path d="M922.844 527.039C925.125 532.226 927.203 537.485 929.252 542.753C931.306 548.019 933.285 553.304 935.11 558.679C936.868 564.066 938.462 569.56 939.227 575.218C939.602 578.042 939.866 580.885 939.829 583.733C939.742 586.58 939.499 589.419 938.883 592.182C939.285 586.543 938.864 580.937 937.753 575.459C936.66 569.978 935.05 564.605 933.266 559.274C931.504 553.935 929.57 548.619 927.85 543.241C926.094 537.869 924.368 532.488 922.844 527.039Z" fill="#09660E"/>
<path d="M944.936 516.681C943.615 522.996 942.091 529.255 940.534 535.508L935.724 554.201C934.139 560.419 932.794 566.68 931.96 573.015C931.127 579.348 930.986 585.765 931.619 592.182C930.894 589.037 930.52 585.815 930.292 582.583C930.131 579.344 930.244 576.099 930.477 572.864C930.97 566.389 932.287 560.014 933.838 553.744C935.442 547.478 937.236 541.296 939.099 535.125C940.955 528.953 942.843 522.79 944.936 516.681Z" fill="#09660E"/>
<path d="M956.092 524.861C954.771 531.177 953.245 537.436 951.69 543.688L946.878 562.382C945.295 568.6 943.95 574.86 943.117 581.193C942.284 587.527 942.142 593.946 942.775 600.363C942.05 597.217 941.676 593.995 941.449 590.764C941.287 587.525 941.4 584.278 941.631 581.044C942.126 574.568 943.443 568.193 944.994 561.925C946.598 555.658 948.393 549.476 950.255 543.306C952.111 537.133 953.999 530.971 956.092 524.861Z" fill="#09660E"/>
<path d="M973.442 556.007C968.867 560.617 964.146 565.071 959.404 569.505L945.096 582.67C940.352 587.058 935.783 591.611 931.606 596.497C927.428 601.381 923.787 606.706 920.796 612.442C921.915 609.41 923.367 606.499 924.95 603.66C926.593 600.849 928.466 598.178 930.437 595.579C934.407 590.393 939.015 585.731 943.762 581.284C948.553 576.865 953.454 572.62 958.408 568.417C963.358 564.214 968.327 560.032 973.442 556.007Z" fill="#09660E"/>
<path d="M959.445 590.616C963.618 590.184 958.318 626.041 955.73 641.244C955.151 644.642 954.576 646.122 950.782 645.992C942.974 645.721 935.144 645.816 927.33 645.952C924.239 646.006 922.994 645.029 922.629 641.832C921.107 628.529 914.652 596.565 914.174 593.373C913.863 591.301 914.283 590.668 916.248 590.668C919.075 590.666 957.474 590.821 959.445 590.616Z" fill="#EFF4FC"/>
<path d="M770.101 270.332C768.381 261.615 764.524 253.425 758.128 247.021C755.036 243.925 751.462 241.334 747.588 239.244C745.49 238.112 743.312 237.122 741.084 236.261C740.08 235.873 739.065 235.517 738.043 235.171C737.362 234.938 736.086 234.852 736.202 233.986C736.375 232.703 739.408 231.795 738.474 230.227C738.055 229.523 736.843 229.452 736.127 229.33C735.282 229.184 734.492 229.207 733.686 229.27V29.0003H718.104V229.257C717.095 229.204 716.085 229.152 715.079 229.228C714.355 229.286 713.116 229.368 712.811 230.162C712.438 231.127 713.801 231.974 714.376 232.54C715.254 233.405 716.019 234.504 714.442 235.101C712.29 235.911 710.026 236.384 707.89 237.29C699.67 240.776 692.606 246.834 687.753 254.146C685.407 257.679 683.574 261.544 682.435 265.605C681.786 267.911 681.392 270.263 681.225 272.648C681.145 273.78 680.893 275.977 682.168 276.646C682.553 276.849 683.163 276.822 683.582 276.856C684.648 276.948 685.716 276.992 686.784 277.036C695.136 277.377 703.504 277.398 711.861 277.453C722.468 277.524 733.074 277.533 743.682 277.501C750.933 277.48 758.19 277.487 765.441 277.325C766.022 277.312 766.614 277.319 767.196 277.266C768.113 277.183 769.095 276.925 769.758 276.268C771.268 274.765 770.455 272.12 770.101 270.332Z" fill="#EFF4FC"/>
</svg>
